<svg width="402" height="227" viewBox="0 0 402 227" fill="none" xmlns="http://www.w3.org/2000/svg">
<path d="M158.862 208.367V195.587H160.374V208.367H158.862ZM163.043 208.367V195.011H164.483V208.367H163.043ZM166.998 208.367V195.011H168.438V208.367H166.998ZM174.733 208.637C173.941 208.637 173.257 208.463 172.681 208.115C172.105 207.767 171.661 207.275 171.349 206.639C171.037 205.991 170.881 205.223 170.881 204.335V199.079H172.321V204.353C172.321 204.965 172.417 205.493 172.609 205.937C172.813 206.381 173.095 206.723 173.455 206.963C173.827 207.203 174.265 207.323 174.769 207.323C175.273 207.323 175.705 207.203 176.065 206.963C176.437 206.723 176.719 206.381 176.911 205.937C177.115 205.493 177.217 204.965 177.217 204.353V199.079H178.657V204.335C178.657 205.199 178.495 205.955 178.171 206.603C177.847 207.251 177.391 207.755 176.803 208.115C176.215 208.463 175.525 208.637 174.733 208.637ZM184.047 208.637C183.507 208.637 182.997 208.547 182.517 208.367C182.049 208.187 181.641 207.929 181.293 207.593C180.945 207.257 180.681 206.861 180.501 206.405L181.797 205.937C182.037 206.393 182.349 206.747 182.733 206.999C183.117 207.251 183.555 207.377 184.047 207.377C184.443 207.377 184.791 207.311 185.091 207.179C185.391 207.047 185.625 206.867 185.793 206.639C185.961 206.399 186.045 206.135 186.045 205.847C186.045 205.067 185.481 204.563 184.353 204.335L183.651 204.191C182.667 203.999 181.941 203.687 181.473 203.255C181.005 202.811 180.771 202.253 180.771 201.581C180.771 201.041 180.909 200.561 181.185 200.141C181.461 199.721 181.845 199.397 182.337 199.169C182.841 198.929 183.411 198.809 184.047 198.809C184.575 198.809 185.061 198.899 185.505 199.079C185.949 199.247 186.327 199.499 186.639 199.835C186.963 200.171 187.209 200.567 187.377 201.023L186.081 201.455C185.889 201.011 185.613 200.669 185.253 200.429C184.905 200.177 184.497 200.051 184.029 200.051C183.669 200.051 183.351 200.111 183.075 200.231C182.811 200.351 182.601 200.513 182.445 200.717C182.289 200.921 182.211 201.161 182.211 201.437C182.211 201.821 182.355 202.127 182.643 202.355C182.943 202.583 183.423 202.763 184.083 202.895L184.785 203.039C185.673 203.219 186.351 203.537 186.819 203.993C187.287 204.437 187.521 205.007 187.521 205.703C187.521 206.135 187.431 206.531 187.251 206.891C187.083 207.239 186.843 207.545 186.531 207.809C186.231 208.073 185.865 208.277 185.433 208.421C185.013 208.565 184.551 208.637 184.047 208.637ZM192.866 208.637C192.302 208.637 191.816 208.523 191.408 208.295C191 208.067 190.682 207.731 190.454 207.287C190.238 206.843 190.13 206.303 190.13 205.667V200.303H188.42V199.079H190.13V195.965H191.57V199.079H194.486V200.303H191.57V205.595C191.57 206.147 191.684 206.579 191.912 206.891C192.152 207.191 192.512 207.341 192.992 207.341C193.244 207.341 193.496 207.305 193.748 207.233C194.012 207.149 194.246 207.041 194.45 206.909L194.882 208.025C194.63 208.205 194.336 208.349 194 208.457C193.664 208.577 193.286 208.637 192.866 208.637ZM199.462 208.637C198.814 208.637 198.238 208.517 197.734 208.277C197.23 208.025 196.834 207.683 196.546 207.251C196.27 206.819 196.132 206.321 196.132 205.757C196.132 205.145 196.288 204.617 196.6 204.173C196.924 203.729 197.374 203.387 197.95 203.147C198.526 202.895 199.198 202.769 199.966 202.769C200.398 202.769 200.836 202.817 201.28 202.913C201.724 203.009 202.12 203.135 202.468 203.291V202.607C202.468 202.103 202.366 201.665 202.162 201.293C201.97 200.909 201.7 200.615 201.352 200.411C201.004 200.195 200.596 200.087 200.128 200.087C199.564 200.087 199.072 200.219 198.652 200.483C198.244 200.747 197.938 201.119 197.734 201.599L196.474 201.167C196.642 200.687 196.9 200.273 197.248 199.925C197.608 199.577 198.034 199.307 198.526 199.115C199.03 198.923 199.57 198.827 200.146 198.827C200.89 198.827 201.538 198.989 202.09 199.313C202.654 199.625 203.086 200.069 203.386 200.645C203.698 201.209 203.854 201.875 203.854 202.643V208.367H202.594L202.504 206.927C202.24 207.443 201.838 207.857 201.298 208.169C200.77 208.481 200.158 208.637 199.462 208.637ZM197.59 205.703C197.59 206.051 197.68 206.357 197.86 206.621C198.04 206.873 198.292 207.071 198.616 207.215C198.94 207.359 199.312 207.431 199.732 207.431C200.248 207.431 200.71 207.317 201.118 207.089C201.538 206.849 201.868 206.531 202.108 206.135C202.348 205.727 202.468 205.265 202.468 204.749V204.407C202.072 204.251 201.67 204.131 201.262 204.047C200.866 203.951 200.488 203.903 200.128 203.903C199.336 203.903 198.712 204.065 198.256 204.389C197.812 204.713 197.59 205.151 197.59 205.703ZM206.302 208.367V199.079H207.598L207.688 200.807C207.916 200.231 208.258 199.781 208.714 199.457C209.17 199.121 209.704 198.953 210.316 198.953C210.52 198.953 210.7 198.971 210.856 199.007C211.024 199.031 211.168 199.067 211.288 199.115L211.108 200.483C210.976 200.435 210.838 200.405 210.694 200.393C210.55 200.369 210.406 200.357 210.262 200.357C209.758 200.357 209.314 200.483 208.93 200.735C208.558 200.987 208.264 201.347 208.048 201.815C207.844 202.271 207.742 202.811 207.742 203.435V208.367H206.302ZM216.86 208.637C216.296 208.637 215.81 208.523 215.402 208.295C214.994 208.067 214.676 207.731 214.448 207.287C214.232 206.843 214.124 206.303 214.124 205.667V200.303H212.414V199.079H214.124V195.965H215.564V199.079H218.48V200.303H215.564V205.595C215.564 206.147 215.678 206.579 215.906 206.891C216.146 207.191 216.506 207.341 216.986 207.341C217.238 207.341 217.49 207.305 217.742 207.233C218.006 207.149 218.24 207.041 218.444 206.909L218.876 208.025C218.624 208.205 218.33 208.349 217.994 208.457C217.658 208.577 217.28 208.637 216.86 208.637ZM222.444 196.361C222.444 196.541 222.396 196.709 222.3 196.865C222.216 197.009 222.096 197.129 221.94 197.225C221.796 197.309 221.634 197.351 221.454 197.351C221.274 197.351 221.106 197.309 220.95 197.225C220.806 197.129 220.686 197.009 220.59 196.865C220.506 196.709 220.464 196.541 220.464 196.361C220.464 196.181 220.506 196.019 220.59 195.875C220.686 195.719 220.806 195.599 220.95 195.515C221.106 195.419 221.274 195.371 221.454 195.371C221.634 195.371 221.796 195.419 221.94 195.515C222.096 195.599 222.216 195.719 222.3 195.875C222.396 196.019 222.444 196.181 222.444 196.361ZM220.734 208.367V199.079H222.174V208.367H220.734ZM228.811 208.637C228.151 208.637 227.539 208.517 226.975 208.277C226.423 208.025 225.937 207.683 225.517 207.251C225.109 206.807 224.791 206.285 224.563 205.685C224.335 205.085 224.221 204.431 224.221 203.723C224.221 203.015 224.335 202.361 224.563 201.761C224.803 201.161 225.127 200.645 225.535 200.213C225.955 199.769 226.447 199.427 227.011 199.187C227.575 198.935 228.187 198.809 228.847 198.809C229.507 198.809 230.113 198.935 230.665 199.187C231.229 199.427 231.715 199.769 232.123 200.213C232.543 200.645 232.867 201.161 233.095 201.761C233.323 202.361 233.437 203.015 233.437 203.723C233.437 204.431 233.317 205.085 233.077 205.685C232.849 206.285 232.525 206.807 232.105 207.251C231.697 207.683 231.211 208.025 230.647 208.277C230.083 208.517 229.471 208.637 228.811 208.637ZM228.829 207.323C229.285 207.323 229.699 207.233 230.071 207.053C230.455 206.873 230.785 206.627 231.061 206.315C231.349 205.991 231.571 205.613 231.727 205.181C231.883 204.737 231.961 204.251 231.961 203.723C231.961 203.195 231.883 202.715 231.727 202.283C231.571 201.839 231.349 201.461 231.061 201.149C230.785 200.825 230.455 200.573 230.071 200.393C229.699 200.213 229.285 200.123 228.829 200.123C228.373 200.123 227.953 200.213 227.569 200.393C227.197 200.573 226.867 200.825 226.579 201.149C226.303 201.461 226.087 201.839 225.931 202.283C225.775 202.715 225.697 203.195 225.697 203.723C225.697 204.251 225.775 204.737 225.931 205.181C226.087 205.613 226.303 205.991 226.579 206.315C226.867 206.627 227.197 206.873 227.569 207.053C227.953 207.233 228.373 207.323 228.829 207.323ZM235.482 208.367V199.079H236.778L236.85 200.555C237.126 200.027 237.522 199.607 238.038 199.295C238.566 198.971 239.172 198.809 239.856 198.809C240.564 198.809 241.182 198.977 241.71 199.313C242.238 199.649 242.64 200.129 242.916 200.753C243.204 201.365 243.348 202.091 243.348 202.931V208.367H241.908V203.021C241.908 202.097 241.704 201.383 241.296 200.879C240.9 200.375 240.33 200.123 239.586 200.123C239.07 200.123 238.608 200.243 238.2 200.483C237.804 200.711 237.492 201.035 237.264 201.455C237.036 201.863 236.922 202.331 236.922 202.859V208.367H235.482Z" fill="#CBD2D9"/>
<rect x="0.948242" y="0.313965" width="400.103" height="226.359" rx="10" fill="#CBD2D9"/>
<path d="M181.735 38.578L254.387 164.414H109.084L181.735 38.578Z" fill="#AABACA"/>
<path d="M231.448 55.4553L294.413 164.513H168.484L231.448 55.4553Z" fill="#AABACA"/>
<circle cx="260.707" cy="63.6825" r="12.6651" fill="#AABACA"/>
</svg>
