<svg width="47" height="47" viewBox="0 0 47 47" fill="none" xmlns="http://www.w3.org/2000/svg">
<path d="M39.016 7.91291C37.0028 5.88871 34.6082 4.28392 31.9707 3.19141C29.3331 2.0989 26.5051 1.54037 23.6502 1.54817C22.9065 1.54822 22.1633 1.58584 21.4234 1.6609L21.5701 3.101C22.2613 3.03087 22.9555 2.99572 23.6502 2.99569C28.782 2.98117 33.7257 4.92621 37.4718 8.43359L34.7364 11.169L35.7599 12.1925L38.4953 9.45712C42.0027 13.2032 43.9478 18.1469 43.9332 23.2787C43.9332 23.5696 43.9272 23.8593 43.9153 24.1478L40.6377 24.9672C40.4903 25.004 40.3367 25.0095 40.187 24.9833C40.0373 24.9571 39.8948 24.8997 39.7686 24.8149C39.6425 24.7301 39.5356 24.6198 39.4548 24.491C39.374 24.3623 39.3212 24.218 39.2997 24.0676L39.1853 23.2664C39.131 22.8867 38.9912 22.5242 38.7765 22.2064C38.5617 21.8885 38.2775 21.6236 37.9454 21.4316C37.6133 21.2396 37.242 21.1256 36.8594 21.098C36.4768 21.0705 36.0929 21.1302 35.7368 21.2727L32.8295 22.4356C32.3834 22.612 31.8888 22.6222 31.4358 22.4642C30.9829 22.3063 30.6018 21.9907 30.3622 21.575L29.6674 20.3591C29.4515 19.9798 29.366 19.5402 29.4239 19.1076C29.4818 18.675 29.68 18.2734 29.9881 17.9642L34.3123 13.64L33.2888 12.6165L28.9646 16.9407C28.4324 17.4747 28.0901 18.1684 27.99 18.9156C27.8899 19.6628 28.0377 20.4222 28.4107 21.0773L29.1055 22.2932C29.5193 23.0111 30.1775 23.5562 30.9598 23.8291C31.7422 24.1019 32.5966 24.0844 33.3671 23.7795L36.2744 22.6166C36.427 22.5556 36.5915 22.53 36.7555 22.5418C36.9195 22.5536 37.0786 22.6025 37.2209 22.6848C37.3632 22.7671 37.485 22.8806 37.5771 23.0168C37.6691 23.153 37.729 23.3083 37.7523 23.4711L37.8667 24.2722C37.917 24.6232 38.0404 24.9598 38.229 25.2601C38.4175 25.5604 38.667 25.8179 38.9612 26.0157C39.2555 26.2136 39.588 26.3475 39.9373 26.4088C40.2865 26.4701 40.6448 26.4574 40.9888 26.3715L43.7957 25.6698C43.525 28.0021 42.8458 30.2685 41.7891 32.3653C41.6359 32.6704 41.4748 32.9718 41.3058 33.2692L35.182 31.8561C34.7398 31.754 34.2818 31.7406 33.8343 31.8164C33.3869 31.8923 32.9589 32.0559 32.575 32.298C32.1912 32.5401 31.8591 32.8558 31.5978 33.2269C31.3366 33.598 31.1514 34.0171 31.053 34.4601L30.8035 35.5827C30.7458 35.8422 30.6368 36.0874 30.4828 36.3041C30.3288 36.5207 30.133 36.7043 29.9069 36.844C29.6809 36.9838 29.4291 37.0768 29.1664 37.1176C28.9038 37.1585 28.6357 37.1463 28.3778 37.0819L27.1022 36.763C26.4272 36.5971 25.7179 36.6385 25.0667 36.8817C24.4156 37.125 23.8529 37.5588 23.452 38.1267L19.8895 43.2159C17.1157 42.6895 14.4821 41.5905 12.1569 39.9891C9.83167 38.3877 7.86587 36.319 6.38501 33.9152C4.90415 31.5114 3.94076 28.8253 3.55632 26.0282C3.17189 23.2312 3.37487 20.3848 4.15231 17.6706L2.76097 17.2711C1.53359 21.5437 1.64569 26.0898 3.08216 30.2966C4.51862 34.5035 7.21038 38.1688 10.7945 40.7984C14.3787 43.4279 18.683 44.8954 23.127 45.0029C27.571 45.1103 31.9412 43.8527 35.6483 41.3994L34.8481 40.1932C31.5294 42.396 27.6334 43.568 23.6502 43.5617C22.9297 43.5618 22.2098 43.5242 21.4932 43.4491L24.6378 38.9568C24.8699 38.6281 25.1957 38.3769 25.5727 38.2361C25.9497 38.0952 26.3603 38.0713 26.7511 38.1673L28.0267 38.4862C28.4721 38.5975 28.9353 38.6185 29.3889 38.548C29.8425 38.4774 30.2774 38.3168 30.668 38.0754C31.0585 37.834 31.3967 37.5169 31.6627 37.1427C31.9286 36.7686 32.117 36.3449 32.2166 35.8967L32.466 34.7741C32.523 34.5177 32.6302 34.275 32.7815 34.0602C32.9327 33.8453 33.125 33.6625 33.3472 33.5224C33.5695 33.3822 33.8172 33.2874 34.0763 33.2435C34.3353 33.1996 34.6005 33.2074 34.8565 33.2665L40.5009 34.569C39.2796 36.3852 37.7754 37.9942 36.0455 39.3348L36.9309 40.48C39.5116 38.4804 41.6133 35.9299 43.0828 33.0147C45.1248 28.9331 45.8308 24.3125 45.1009 19.8074C44.371 15.3023 42.2422 11.141 39.016 7.9129L39.016 7.91291Z" fill="#484848"/>
<path d="M26.3165 25.5462L25.0372 26.399C24.8387 26.531 24.676 26.7101 24.5635 26.9202C24.451 27.1304 24.3923 27.3651 24.3926 27.6035V29.107C24.3928 29.3363 24.4474 29.5623 24.552 29.7663C24.6566 29.9704 24.8081 30.1467 24.9941 30.2808C25.1801 30.4148 25.3953 30.5028 25.622 30.5375C25.8486 30.5722 26.0803 30.5525 26.2979 30.4802L28.7351 29.6678C28.9527 29.5953 29.15 29.4721 29.3106 29.3083C29.4712 29.1446 29.5907 28.9451 29.6591 28.7261C29.7274 28.5072 29.7428 28.2752 29.7039 28.0491C29.665 27.8231 29.573 27.6095 29.4354 27.426L28.2774 25.8821C28.0553 25.5862 27.7284 25.3865 27.3638 25.3241C26.9991 25.2616 26.6244 25.3411 26.3165 25.5462ZM28.2774 28.2946L25.8401 29.107V27.6035L27.1194 26.7506L28.2774 28.2946Z" fill="#484848"/>
<path d="M28.8686 11.1608C29.1475 11.1602 29.4209 11.0834 29.6594 10.9389L30.8814 10.2057C31.1091 10.0691 31.2976 9.87577 31.4284 9.64466C31.5593 9.41355 31.628 9.1525 31.628 8.88692C31.628 8.62134 31.5593 8.36028 31.4284 8.12917C31.2976 7.89806 31.1091 7.70477 30.8814 7.56813L29.6594 6.83491C29.426 6.69488 29.1596 6.61929 28.8875 6.61585C28.6153 6.61242 28.3472 6.68126 28.1103 6.81535C27.8735 6.94945 27.6765 7.14399 27.5394 7.37912C27.4023 7.61425 27.3301 7.88154 27.3301 8.15371V9.62013C27.3311 10.0281 27.4934 10.419 27.7817 10.7077C28.0699 10.9963 28.4606 11.1592 28.8685 11.1608H28.8686ZM28.7776 8.15369C28.7768 8.13753 28.7806 8.12146 28.7888 8.10748C28.797 8.0935 28.809 8.0822 28.8235 8.07498C28.8373 8.06674 28.8529 8.06226 28.869 8.06198C28.8852 8.0623 28.901 8.0672 28.9146 8.07611L30.1366 8.80933C30.15 8.81736 30.1611 8.82873 30.1688 8.84233C30.1765 8.85592 30.1805 8.87128 30.1805 8.8869C30.1805 8.90252 30.1765 8.91788 30.1688 8.93147C30.1611 8.94506 30.15 8.95643 30.1366 8.96447L28.9147 9.69768C28.901 9.70593 28.8853 9.71038 28.8693 9.71059C28.8532 9.7108 28.8375 9.70676 28.8235 9.69887C28.8096 9.69098 28.798 9.67953 28.7899 9.66569C28.7819 9.65186 28.7776 9.63612 28.7776 9.62011V8.15369Z" fill="#484848"/>
<path d="M20.4171 31.8339C20.5127 31.6164 20.5643 31.382 20.5687 31.1444C20.5732 30.9069 20.5305 30.6707 20.4431 30.4498L19.7887 28.786L18.4416 29.3159L19.096 30.9796C19.1303 31.069 19.1281 31.1682 19.0899 31.256C19.0517 31.3437 18.9805 31.413 18.8918 31.4488L17.695 31.9195C17.5917 31.9602 17.4992 32.024 17.4245 32.1061C17.3498 32.1883 17.295 32.2865 17.2644 32.3931C17.2337 32.4998 17.228 32.6121 17.2477 32.7214C17.2673 32.8306 17.3119 32.9338 17.3778 33.0231L18.5893 34.6632C18.6844 34.7919 18.7498 34.94 18.781 35.097C18.8121 35.254 18.8082 35.4159 18.7694 35.5711C18.7307 35.7264 18.6581 35.8711 18.5568 35.9951C18.4556 36.119 18.3282 36.219 18.1838 36.2879L16.9594 36.8725C16.8348 36.9321 16.7 36.9672 16.5621 36.976L15.8265 37.0238C15.6842 37.0331 15.5415 37.0142 15.4066 36.9683C15.2716 36.9224 15.147 36.8504 15.0399 36.7564C14.9327 36.6623 14.8452 36.548 14.7822 36.4201C14.7192 36.2922 14.6821 36.1532 14.6728 36.0109L14.6079 35.0126C14.5706 34.4137 14.3212 33.8477 13.9045 33.4159C13.4878 32.9842 12.9309 32.7149 12.3337 32.6564L11.0035 32.5226C10.7476 32.4976 10.5089 32.3822 10.3303 32.1972C10.1517 32.0121 10.0448 31.7696 10.0288 31.5129L9.91919 29.8249C9.90541 29.6236 9.9483 29.4225 10.043 29.2444C10.1377 29.0662 10.2805 28.9182 10.455 28.817L9.72503 27.5671C9.3177 27.8031 8.98465 28.1485 8.76364 28.5642C8.54263 28.9798 8.44251 29.4491 8.47462 29.9188L8.58434 31.6068C8.62167 32.2057 8.87105 32.7717 9.28779 33.2034C9.70454 33.6352 10.2614 33.9044 10.8586 33.9629L12.1888 34.0967C12.4448 34.1218 12.6834 34.2372 12.862 34.4222C13.0406 34.6072 13.1475 34.8498 13.1635 35.1065L13.2283 36.1048C13.2708 36.7463 13.5552 37.3477 14.0242 37.7875C14.4931 38.2273 15.1116 38.4726 15.7545 38.4738C15.8094 38.4738 15.8649 38.4719 15.9204 38.4683L16.6561 38.4205C16.9777 38.3999 17.2924 38.3178 17.5831 38.1787L18.8075 37.5942C19.1444 37.4333 19.4416 37.2 19.6779 36.9108C19.9141 36.6217 20.0835 36.2839 20.1739 35.9216C20.2643 35.5593 20.2735 35.1816 20.2008 34.8153C20.1282 34.4491 19.9755 34.1034 19.7536 33.8031L19.1024 32.9215L19.4216 32.7959C19.6429 32.7093 19.8448 32.5797 20.0157 32.4146C20.1866 32.2495 20.323 32.0521 20.4171 31.8339Z" fill="#484848"/>
<path d="M8.05727 20.0032C6.40981 17.1585 5.57447 14.602 5.57447 12.4045C5.57447 9.90915 6.56576 7.51597 8.33026 5.75146C10.0948 3.98696 12.4879 2.99567 14.9833 2.99567C17.4787 2.99567 19.8719 3.98696 21.6364 5.75146C23.4009 7.51597 24.3922 9.90915 24.3922 12.4045C24.3922 18.9694 16.9834 26.7778 14.9829 28.7662C13.8842 27.6761 11.1569 24.8362 8.92887 21.4182L7.71623 22.2086C10.6643 26.7314 14.336 30.1613 14.4909 30.3051C14.6247 30.4294 14.8006 30.4985 14.9833 30.4985C15.166 30.4985 15.3419 30.4294 15.4758 30.3051C17.3429 28.5129 19.0653 26.5758 20.6268 24.5119C24.0858 19.941 25.8397 15.8675 25.8397 12.4045C25.8397 9.52524 24.6959 6.76388 22.6599 4.72792C20.624 2.69195 17.8626 1.54816 14.9833 1.54816C12.104 1.54816 9.34268 2.69195 7.30671 4.72792C5.27075 6.76388 4.12695 9.52524 4.12695 12.4045C4.12695 14.86 5.02785 17.6607 6.80465 20.7287L8.05727 20.0032Z" fill="#484848"/>
<path d="M20.7735 13.1283C20.7735 11.9831 20.4339 10.8637 19.7977 9.91151C19.1615 8.95934 18.2572 8.21721 17.1992 7.77897C16.1412 7.34074 14.977 7.22607 13.8538 7.44948C12.7307 7.67289 11.699 8.22434 10.8892 9.0341C10.0795 9.84386 9.52803 10.8755 9.30462 11.9987C9.08121 13.1219 9.19587 14.2861 9.6341 15.3441C10.0723 16.4021 10.8145 17.3063 11.7666 17.9426C12.7188 18.5788 13.8383 18.9184 14.9834 18.9184C16.5185 18.9166 17.9902 18.306 19.0757 17.2206C20.1612 16.1351 20.7718 14.6634 20.7735 13.1283ZM10.6409 13.1283C10.6409 12.2694 10.8956 11.4298 11.3727 10.7157C11.8499 10.0016 12.5281 9.44498 13.3216 9.1163C14.1151 8.78763 14.9882 8.70163 15.8306 8.86919C16.673 9.03674 17.4468 9.45033 18.0541 10.0576C18.6614 10.665 19.075 11.4387 19.2425 12.2811C19.4101 13.1235 19.3241 13.9966 18.9954 14.7901C18.6667 15.5836 18.1102 16.2618 17.396 16.739C16.6819 17.2162 15.8423 17.4708 14.9834 17.4708C13.8321 17.4695 12.7283 17.0116 11.9142 16.1975C11.1001 15.3834 10.6422 14.2796 10.6409 13.1283Z" fill="#484848"/>
</svg>
