<svg width="31" height="31" viewBox="0 0 31 31" fill="none" xmlns="http://www.w3.org/2000/svg">
<g clip-path="url(#clip0)">
<path d="M18.5891 11.6499C18.2661 11.6499 18.0039 11.9121 18.0039 12.2351C18.0039 12.5581 18.2661 12.8203 18.5891 12.8203C18.9121 12.8203 19.1743 12.5581 19.1743 12.2351C19.1743 11.9121 18.9121 11.6499 18.5891 11.6499Z" fill="black"/>
<path d="M29.7244 26.4969L21.9135 18.686C23.186 16.7693 23.8562 14.5497 23.8562 12.2351C23.8562 5.78175 18.606 0.531555 12.1527 0.531555C5.69941 0.531555 0.449219 5.78175 0.449219 12.2351C0.449219 18.6884 5.69941 23.9386 12.1527 23.9386C14.4675 23.9386 16.687 23.2683 18.6036 21.9959L20.7627 24.1549C20.7629 24.1552 20.7632 24.1555 20.7636 24.1559L26.4145 29.8068C26.8568 30.249 27.4445 30.4925 28.0695 30.4925C28.6945 30.4925 29.2822 30.249 29.7243 29.807C30.1666 29.365 30.4102 28.7772 30.4102 28.1518C30.4102 27.5265 30.1666 26.9387 29.7244 26.4969ZM18.3284 20.7627C18.3284 20.7627 18.3284 20.7627 18.3283 20.7628C16.5221 22.0747 14.3866 22.7682 12.1527 22.7682C6.34475 22.7682 1.61957 18.0431 1.61957 12.2351C1.61957 6.42708 6.34475 1.70191 12.1527 1.70191C17.9607 1.70191 22.6859 6.42708 22.6859 12.2351C22.6859 14.469 21.9924 16.6044 20.6804 18.4107C20.024 19.315 19.2327 20.1063 18.3284 20.7627ZM19.5561 21.2932C20.1618 20.7977 20.7154 20.2441 21.2108 19.6385L22.871 21.2987C22.3662 21.8946 21.8122 22.4485 21.2163 22.9534L19.5561 21.2932ZM28.8969 28.9792C28.6757 29.2004 28.3819 29.3222 28.0695 29.3222C27.7571 29.3222 27.4633 29.2004 27.2421 28.9792L22.0461 23.7832C22.6387 23.2746 23.1922 22.7211 23.7008 22.1285L28.897 27.3247C29.1181 27.5455 29.2399 27.8392 29.2399 28.1518C29.2399 28.4644 29.1181 28.7581 28.8969 28.9792Z" fill="black"/>
<path d="M12.1519 2.87225C6.98916 2.87225 2.78906 7.07235 2.78906 12.2351C2.78906 17.3978 6.98916 21.5979 12.1519 21.5979C17.3146 21.5979 21.5147 17.3978 21.5147 12.2351C21.5147 7.07235 17.3146 2.87225 12.1519 2.87225ZM12.1519 20.4275C7.63455 20.4275 3.95941 16.7524 3.95941 12.2351C3.95941 7.71774 7.63455 4.0426 12.1519 4.0426C16.6692 4.0426 20.3443 7.71774 20.3443 12.2351C20.3443 16.7524 16.6692 20.4275 12.1519 20.4275Z" fill="black"/>
<path d="M18.7094 9.72311C18.2055 8.41161 17.3281 7.2903 16.172 6.48047C14.9885 5.65128 13.5982 5.21298 12.1516 5.21298C11.8284 5.21298 11.5664 5.47502 11.5664 5.79816C11.5664 6.12129 11.8284 6.38333 12.1516 6.38333C14.5566 6.38333 16.7529 7.89414 17.6169 10.1429C17.7063 10.3756 17.928 10.5184 18.1633 10.5184C18.233 10.5184 18.304 10.5058 18.373 10.4793C18.6747 10.3633 18.8253 10.0248 18.7094 9.72311Z" fill="black"/>
</g>
<defs>
<clipPath id="clip0">
<rect width="29.961" height="29.961" fill="white" transform="translate(0.449219 0.531555)"/>
</clipPath>
</defs>
</svg>
