<svg width="329" height="310" viewBox="0 0 329 310" fill="none" xmlns="http://www.w3.org/2000/svg">
<path d="M1.06982 216.617H8.80535" stroke="black" stroke-width="1.32609" stroke-linecap="round" stroke-linejoin="round"/>
<path d="M141.102 217.588H178.101" stroke="black" stroke-width="1.32609" stroke-linecap="round" stroke-linejoin="round"/>
<path d="M181.296 217.688L220.258 218.077" stroke="black" stroke-width="1.32609" stroke-linecap="round" stroke-linejoin="round"/>
<path d="M286.529 218.077H326.422" stroke="black" stroke-width="1.32609" stroke-linecap="round" stroke-linejoin="round"/>
<path d="M235.313 109.426C236.002 112.181 239.055 113.511 241.735 114.45L252.528 118.234C257.872 120.107 263.681 122.361 266.397 127.33C267.581 129.496 268.041 131.971 268.484 134.398C270.123 143.37 271.761 152.342 273.401 161.314C276.566 178.642 279.74 196.058 280.107 213.67C280.215 218.883 280.002 224.376 277.312 228.843C275.108 232.504 271.289 235.152 267.088 235.934" stroke="black" stroke-width="0.884061" stroke-linecap="round" stroke-linejoin="round"/>
<path d="M256.589 210.607C249.678 193.898 245.147 176.302 243.128 158.333" stroke="black" stroke-width="0.884061" stroke-linecap="round" stroke-linejoin="round"/>
<path d="M242.961 154.033C242.66 150.311 242.728 146.569 243.163 142.86C243.679 138.458 244.766 133.999 247.322 130.378C249.879 126.757 254.134 124.106 258.555 124.411" stroke="black" stroke-width="0.884061" stroke-linecap="round" stroke-linejoin="round"/>
<path d="M254.468 234.939C245.849 233.272 237.798 229.33 230.502 224.445C223.207 219.56 216.599 213.733 210.018 207.925C207.299 207.848 205.103 207.801 202.398 207.522C202.31 207.513 202.2 207.481 202.194 207.394C202.188 207.306 202.376 207.359 202.302 207.406" stroke="black" stroke-width="0.884061" stroke-linecap="round" stroke-linejoin="round"/>
<path d="M202.351 207.174C207.121 200.015 213.005 193.663 219.779 188.358C221.738 189.813 223.138 191.6 224.303 193.745" stroke="black" stroke-width="0.884061" stroke-linecap="round" stroke-linejoin="round"/>
<path d="M223.918 193.552C219.774 198.835 215.068 203.653 209.885 207.921" stroke="black" stroke-width="0.855329" stroke-linecap="round" stroke-linejoin="round"/>
<path d="M224.179 193.951C234.992 198.997 245.539 204.569 255.819 210.665C259.311 212.736 262.803 214.893 265.679 217.758" stroke="black" stroke-width="0.884061" stroke-linecap="round" stroke-linejoin="round"/>
<path d="M256.835 210.665C259.686 208.781 262.901 207.519 266.272 206.959C267.156 206.813 268.145 206.741 268.861 207.277" stroke="black" stroke-width="0.884061" stroke-linecap="round" stroke-linejoin="round"/>
<path d="M245.957 204.797C245.791 198.583 246.621 192.383 248.414 186.432" stroke="black" stroke-width="0.913677" stroke-linecap="round" stroke-linejoin="round"/>
<path d="M235.479 109.045C232.6 109.089 229.79 109.898 227.055 110.8C220.547 112.949 214.241 115.67 208.214 118.934" stroke="black" stroke-width="0.855329" stroke-linecap="round" stroke-linejoin="round"/>
<path d="M237.164 113.013C230.461 117.933 222.674 121.172 214.459 122.46" stroke="black" stroke-width="0.855329" stroke-linecap="round" stroke-linejoin="round"/>
<path d="M211.504 117.206C212.649 118.844 213.692 120.55 214.628 122.316" stroke="black" stroke-width="0.855329" stroke-linecap="round" stroke-linejoin="round"/>
<path d="M210.529 117.304C211.358 113.074 211.784 108.775 211.799 104.464" stroke="black" stroke-width="0.893785" stroke-linecap="round" stroke-linejoin="round"/>
<path d="M205.219 74.0635C203.024 81.6517 202.106 89.5519 202.503 97.4411C202.543 98.2368 202.607 99.0634 203.008 99.7507C203.69 100.919 204.278 101.912 205.245 102.86C206.211 103.807 207.478 104.52 208.831 104.547C212.107 104.613 215.072 103.826 218.248 103.02" stroke="black" stroke-width="0.855329" stroke-linecap="round" stroke-linejoin="round"/>
<path d="M230.699 86.4829L229.815 93.4696C229.623 94.9832 229.394 96.5851 228.423 97.7613C227.634 98.7161 226.464 99.2549 225.334 99.7628L222.748 100.925" stroke="black" stroke-width="0.855329" stroke-linecap="round" stroke-linejoin="round"/>
<path d="M205.135 73.8246C204.537 72.4331 203.939 71.0274 203.647 69.5413C202.467 63.5297 208.356 57.3855 213.076 54.5715C217.474 51.9472 222.693 50.828 227.81 51.0424C229.234 51.1025 230.808 51.3398 231.714 52.4405C230.845 53.3688 230.842 54.8562 230.579 56.0996C230.376 57.0553 230.206 58.0401 230.358 59.0055C230.496 59.8821 230.895 60.6967 231.358 61.4535C232.567 63.4221 234.23 65.0727 236.207 66.2672C234.827 69.6589 233.381 73.3839 233.946 77.0015C234.631 77.2313 234.926 77.3692 235.61 77.5991C236.202 73.9435 237.909 70.7521 240.666 68.2807C241.754 67.3082 243.035 66.4542 244.484 66.2765C245.934 66.0988 247.562 66.7627 248.135 68.1056C248.403 68.7364 248.422 69.4489 248.326 70.1279C248.027 72.2541 246.691 74.0898 245.2 75.6369C243.71 77.184 242.023 78.5543 240.74 80.2738C239.458 81.9933 238.604 84.2039 239.11 86.2903" stroke="black" stroke-width="0.855329" stroke-linecap="round" stroke-linejoin="round"/>
<path d="M204.094 63.9536C201.259 62.2144 198.976 59.7071 197.508 56.7224C196.864 55.407 196.38 53.9293 196.658 52.4913C197.105 50.1782 199.459 48.6253 201.797 48.3336C204.135 48.0419 206.472 48.7314 208.726 49.4175C206.785 49.5372 205.018 47.7705 204.881 45.8299C204.744 43.8894 206.041 42.0099 207.801 41.1815C209.561 40.3532 211.674 40.4849 213.464 41.2452C215.255 42.0055 216.751 43.3409 217.986 44.8433C223.948 40.1578 231.861 37.6939 239.295 39.1906C246.73 40.6874 253.372 46.5138 254.906 53.9403C255.464 56.6451 254.663 59.7508 253.893 62.403C251.226 71.5409 246.408 79.9066 239.843 86.7986" stroke="black" stroke-width="0.855329" stroke-linecap="round" stroke-linejoin="round"/>
<path d="M235.731 109.715C233.278 106.355 232.993 101.795 234.007 97.7619C235.02 93.7288 237.179 90.0926 239.318 86.5268C239.417 86.3619 239.712 86.2236 239.741 86.4136" stroke="black" stroke-width="0.855329" stroke-linecap="round" stroke-linejoin="round"/>
<path d="M217.966 82.5612C218.143 82.3203 218.375 82.0356 218.667 82.0935C219.239 83.062 219.264 84.3191 218.775 85.3323C218.285 86.3454 217.31 87.0978 216.218 87.3656C215.799 87.4682 215.339 87.4982 214.952 87.3086C213.691 86.6876 213.93 85.4914 214.949 84.9597C216.134 84.3399 217.166 83.6632 217.966 82.5612Z" stroke="black" stroke-width="0.855329" stroke-linecap="round" stroke-linejoin="round"/>
<path d="M209.65 81.5678C208.715 81.7446 207.705 81.0586 207.519 80.1254C207.334 79.1923 208.009 78.1743 208.94 77.9807C209.13 77.9414 209.33 77.9303 209.501 77.8397C209.699 77.7345 209.829 77.5378 209.943 77.3455C211.024 75.5424 211.588 73.4771 211.575 71.375" stroke="black" stroke-width="0.855329" stroke-linecap="round" stroke-linejoin="round"/>
<path d="M205.265 73.2496H205.152C206.455 72.2908 208.147 71.8753 209.755 72.0455C209.844 72.0548 209.963 72.1092 209.932 72.1936" stroke="black" stroke-width="0.855329" stroke-linecap="round" stroke-linejoin="round"/>
<path d="M217.036 72.7143C218.812 71.3343 221.289 70.9112 223.423 71.6238" stroke="black" stroke-width="0.855329" stroke-linecap="round" stroke-linejoin="round"/>
<path d="M204.171 70.1212C204.531 69.8626 204.987 69.7901 205.423 69.7101C206.306 69.544 207.179 69.3298 208.039 69.0683C208.591 68.903 209.17 68.7023 209.536 68.2567C209.902 67.8112 209.934 67.0447 209.455 66.7247C209.13 66.5085 208.703 66.5611 208.321 66.6363C207.36 66.8254 206.418 67.1037 205.509 67.4677C204.809 67.7475 204.072 68.1374 203.791 68.838" stroke="black" stroke-width="0.855329" stroke-linecap="round" stroke-linejoin="round"/>
<path d="M223.692 69.0013C224.235 69.0455 224.906 68.9854 225.134 68.4899C225.293 68.1446 225.143 67.7207 224.876 67.4507C224.609 67.1806 224.246 67.0307 223.895 66.8871C222.942 66.4994 221.977 66.1082 220.96 65.9553C220.218 65.8439 219.464 65.8611 218.714 65.8823C217.78 65.9084 216.971 66.1259 216.807 67.1602C216.686 67.9232 216.848 68.6008 217.65 68.702C218.504 68.8099 219.446 68.5142 220.326 68.5787C221.454 68.6631 222.564 68.9085 223.692 69.0013Z" stroke="black" stroke-width="0.855329" stroke-linecap="round" stroke-linejoin="round"/>
<path d="M219.729 153.956C224.718 154.569 229.754 154.713 234.77 154.385" stroke="black" stroke-width="0.855329" stroke-linecap="round" stroke-linejoin="round"/>
<path d="M219.077 189.428C217.83 188.823 217.052 187.572 216.34 186.383L214.194 182.799" stroke="black" stroke-width="0.855329" stroke-linecap="round" stroke-linejoin="round"/>
<path d="M182.983 188.082C179.47 186.024 176.354 183.355 173.783 180.199C173.061 179.315 172.47 177.809 173.442 177.209C174.068 176.823 174.872 177.182 175.514 177.541L183.957 182.264C180.482 180.418 177.388 177.931 174.839 174.933C174.397 174.414 173.962 173.854 173.823 173.188C173.684 172.522 173.929 171.724 174.549 171.444C175.038 171.222 175.61 171.366 176.117 171.539C179.476 172.677 182.354 174.871 185.168 177.029C182.216 174.968 179.45 172.652 176.902 170.109C176.199 169.408 175.46 168.42 175.873 167.519C176.404 166.361 178.121 166.661 179.277 167.197C182.202 168.557 184.962 170.244 187.505 172.227C184.951 170.71 182.643 168.811 180.663 166.596C180.053 165.912 179.441 164.972 179.84 164.147C180.108 163.592 180.755 163.323 181.367 163.247C183.383 162.992 185.239 164.268 186.869 165.481L192.889 169.957" stroke="black" stroke-width="0.855329" stroke-linecap="round" stroke-linejoin="round"/>
<path d="M246.181 69.06C245.726 68.4208 244.792 68.2745 244.052 68.5335C243.311 68.7926 242.73 69.3694 242.219 69.9648C240.709 71.7285 239.59 73.7926 238.937 76.0207C239.198 76.003 239.39 76.2602 239.492 76.5011C239.641 76.8584 239.713 77.2431 239.702 77.6299C239.692 78.0168 239.599 78.3971 239.432 78.7458" stroke="black" stroke-width="0.855329" stroke-linecap="round" stroke-linejoin="round"/>
<path d="M194.907 118.226C197.364 116.665 199.881 115.18 202.55 114.016C205.219 112.852 208.051 112.012 210.953 111.784" stroke="black" stroke-width="0.855329" stroke-linecap="round" stroke-linejoin="round"/>
<path d="M206.223 200.938C204.124 199.401 201.966 197.835 199.46 197.129C198.448 196.844 197.398 196.706 196.388 196.412C194.654 195.906 193.082 194.956 191.826 193.657" stroke="black" stroke-width="0.855329" stroke-linecap="round" stroke-linejoin="round"/>
<path d="M167.824 166.442C168.796 166.512 169.811 166.594 170.653 167.086C171.495 167.578 172.109 168.614 171.793 169.537C171.512 170.361 170.59 170.825 169.719 170.842C168.849 170.86 168.015 170.526 167.209 170.197" stroke="black" stroke-width="0.886713" stroke-linecap="round" stroke-linejoin="round"/>
<path d="M167.017 171.913C167.505 171.937 167.992 171.974 168.478 172.025C169.521 172.133 170.656 172.355 171.319 173.167C171.617 173.531 171.784 174.075 171.525 174.468C171.385 174.679 171.15 174.805 170.918 174.906C170.238 175.196 169.508 175.346 168.769 175.347C168.03 175.347 167.299 175.199 166.619 174.91" stroke="black" stroke-width="0.886713" stroke-linecap="round" stroke-linejoin="round"/>
<path d="M165.874 176.405C167.313 176.416 168.747 176.8 169.949 177.496C170.249 177.67 170.542 177.87 170.726 178.142C170.91 178.414 170.964 178.774 170.779 179.046C170.636 179.258 170.377 179.385 170.129 179.499C169.374 179.847 168.586 180.178 167.742 180.259C166.897 180.341 165.968 180.13 165.425 179.552" stroke="black" stroke-width="0.897321" stroke-linecap="round" stroke-linejoin="round"/>
<path d="M165.219 181.362C166.426 181.506 167.607 181.816 168.728 182.285C169.116 182.447 169.529 182.664 169.676 183.057C169.822 183.45 169.641 183.9 169.338 184.187C169.036 184.473 168.631 184.625 168.236 184.753C167.67 184.936 167.093 185.085 166.508 185.199C166.181 185.268 165.849 185.313 165.516 185.332C165.028 185.353 164.541 185.291 164.074 185.149" stroke="black" stroke-width="0.886713" stroke-linecap="round" stroke-linejoin="round"/>
<path d="M38.6009 146.436C24.7932 150.859 14.4391 163.221 9.99757 177.024C5.55604 190.827 6.4295 205.876 9.79821 219.979C10.2844 222.021 11.0633 224.331 13.0215 225.088C17.7702 226.922 22.0663 228.928 27.1015 229.664" stroke="black" stroke-width="0.897321" stroke-linecap="round" stroke-linejoin="round"/>
<path d="M75.841 233.634C76.3825 233.095 76.8574 232.493 77.2555 231.841C78.0954 230.466 78.5736 228.903 78.9529 227.337C79.8248 223.73 80.2142 220.024 80.111 216.314C75.3207 215.947 70.3479 215.494 65.7207 214.2C62.3352 213.252 58.9135 212.031 55.4082 212.293C55.1593 212.311 54.9926 212.771 55.2163 212.66" stroke="black" stroke-width="0.897321" stroke-linecap="round" stroke-linejoin="round"/>
<path d="M38.4298 210.426C32.1393 209.919 25.695 211.563 20.4158 215.023C20.0745 215.247 19.7147 215.509 19.6016 215.901" stroke="black" stroke-width="0.897321" stroke-linecap="round" stroke-linejoin="round"/>
<path d="M27.4877 211.202C23.9492 209.919 20.1868 209.368 16.429 209.584" stroke="black" stroke-width="0.897321" stroke-linecap="round" stroke-linejoin="round"/>
<path d="M23.1008 155.522C25.532 154.745 28.0838 156.482 29.6027 158.535C32.6969 162.713 33.3007 168.198 33.4068 173.396C33.6654 186.07 31.5944 198.662 29.5319 211.169" stroke="black" stroke-width="0.897321" stroke-linecap="round" stroke-linejoin="round"/>
<path d="M32.1174 195.879C38.2971 186.28 42.2513 175.421 43.6902 164.097C48.0177 164.412 52.6192 164.253 56.9454 163.938L77.6859 162.426C80.1228 172.688 85.047 182.011 91.9918 189.951" stroke="black" stroke-width="0.897321" stroke-linecap="round" stroke-linejoin="round"/>
<path d="M72.9129 161.95C71.7103 157.034 71.5025 151.928 72.3016 146.931C72.485 145.787 72.912 144.439 74.0352 144.157C75.0567 143.899 76.0822 144.768 76.4085 145.77C76.7347 146.772 76.5596 147.858 76.4315 148.903C75.8516 153.676 76.3257 158.518 77.8203 163.087" stroke="black" stroke-width="0.897321" stroke-linecap="round" stroke-linejoin="round"/>
<path d="M43.7699 163.616C44.7866 157.799 43.1873 151.574 39.4889 146.97C38.9995 146.361 38.4399 145.636 38.6459 144.883C38.7971 144.332 39.3359 143.961 39.8907 143.824C40.4663 143.684 41.0725 143.743 41.6102 143.992C42.2772 144.301 42.7776 144.878 43.251 145.442C43.9812 146.311 44.7004 147.195 45.2843 148.17C46.8942 150.859 47.3729 154.057 47.7743 157.166C48.0572 159.358 48.3158 161.601 47.8441 163.76" stroke="black" stroke-width="0.897321" stroke-linecap="round" stroke-linejoin="round"/>
<path d="M42.6145 172.083C54.8644 173.436 67.2475 172.961 79.3578 170.673" stroke="black" stroke-width="0.897321" stroke-linecap="round" stroke-linejoin="round"/>
<path d="M87.3372 183.351L85.4011 171.662C85.1456 170.118 84.8901 168.538 85.1722 166.999C85.349 166.026 85.7384 165.104 86.1756 164.217C87.6378 161.256 89.6638 158.61 92.1399 156.426" stroke="black" stroke-width="0.897321" stroke-linecap="round" stroke-linejoin="round"/>
<path d="M77.3395 148.013C77.2039 148.022 77.0679 148.003 76.9396 147.959C76.8112 147.914 76.6931 147.844 76.592 147.753L93.2632 156.288C94.6114 156.978 95.9914 157.692 97.0085 158.815C98.282 160.22 98.8492 162.109 99.3796 163.93C101.745 172.054 103.928 180.109 104.533 188.547" stroke="black" stroke-width="0.897321" stroke-linecap="round" stroke-linejoin="round"/>
<path d="M75.5935 233.694C75.2085 233.09 74.5171 232.762 73.8488 232.505C70.6796 231.289 67.2399 230.956 63.8965 231.542" stroke="black" stroke-width="0.897321" stroke-linecap="round" stroke-linejoin="round"/>
<path d="M80.4663 216.238C82.9695 217.564 86.0209 217.091 88.7601 216.371C89.9536 216.057 91.2183 215.703 92.3923 216.078C93.4169 216.405 94.2112 217.246 95.2257 217.604C97.2246 218.311 99.6716 217.026 101.465 218.157C102.514 218.82 102.977 220.158 102.92 221.398" stroke="black" stroke-width="0.707248" stroke-linecap="round" stroke-linejoin="round"/>
<path d="M100.372 221.529C99.8822 221.026 99.1599 220.803 98.458 220.778C97.756 220.752 97.0616 220.91 96.3765 221.063C99.5639 223.39 103.311 224.921 106.289 227.511C106.646 227.82 107.024 228.266 106.864 228.711C106.775 228.96 106.537 229.122 106.302 229.242C104.807 230.007 102.819 229.643 101.693 228.397" stroke="black" stroke-width="0.707248" stroke-linecap="round" stroke-linejoin="round"/>
<path d="M101.618 228.589L94.6511 234.329C93.5792 235.213 92.4852 236.108 91.1927 236.618C89.6624 235.508 88.247 234.655 86.7162 233.544C85.3358 232.543 83.9314 231.521 82.9002 230.164C82.5846 229.75 82.3025 229.304 81.9144 228.958C81.2235 228.342 80.2789 228.111 79.3794 227.9" stroke="black" stroke-width="0.707248" stroke-linecap="round" stroke-linejoin="round"/>
<path d="M70.2605 145.636C67.8922 149.317 64.0465 152.018 59.78 152.997C55.5135 153.976 50.8757 153.221 47.1379 150.941" stroke="black" stroke-width="0.707248" stroke-linecap="round" stroke-linejoin="round"/>
<path d="M45.6265 147.988C49.2069 149.727 52.9898 151.508 56.9641 151.28C61.792 151.004 65.97 147.791 69.1513 144.149" stroke="black" stroke-width="0.707248" stroke-linecap="round" stroke-linejoin="round"/>
<path d="M58.9151 151.497C58.7825 151.373 58.554 151.406 58.4174 151.527C58.2808 151.648 58.2176 151.83 58.1792 152.008C58.1467 152.136 58.1383 152.268 58.1544 152.398C58.1628 152.463 58.1841 152.526 58.2172 152.582C58.2502 152.639 58.2942 152.688 58.3467 152.728C58.4483 152.791 58.5683 152.817 58.6871 152.804C59.0177 152.778 59.324 152.531 59.4054 152.21C59.4522 152.026 59.4222 151.812 59.2904 151.679C59.2281 151.618 59.1525 151.572 59.0694 151.544C58.9349 151.497 58.79 151.487 58.6504 151.516" stroke="black" stroke-width="0.618842" stroke-linecap="round" stroke-linejoin="round"/>
<path d="M57.7992 152.14C57.1308 152.29 56.4384 152.3 55.7659 152.169" stroke="black" stroke-width="0.618842" stroke-linecap="round" stroke-linejoin="round"/>
<path d="M39.322 119.373C37.6542 118.331 35.3853 117.314 33.885 118.587C32.5112 119.752 32.9081 121.95 33.5787 123.623C34.4654 125.833 36.0311 128.213 38.4097 128.344C37.1799 129.304 36.8108 131.065 37.1132 132.596C37.4155 134.126 38.2731 135.481 39.1386 136.779C40.6012 138.973 42.2522 141.22 44.6639 142.283C46.131 142.929 47.7732 143.084 49.2571 143.691C52.506 145.021 55.0751 148.494 58.572 148.18C59.7553 148.074 60.8462 147.523 61.9036 146.982L67.4484 144.144C67.3569 143.843 67.7861 143.75 68.0257 143.544L74.7512 137.784C75.1746 136.37 75.5543 134.31 75.9783 132.896C77.658 127.296 79.3518 121.575 79.1635 115.731" stroke="black" stroke-width="0.884061" stroke-linecap="round" stroke-linejoin="round"/>
<path d="M39.4265 118.933C42.6825 116.441 44.6495 112.584 45.7506 108.634C48.6787 109.237 51.7366 108.174 54.0869 106.327C56.4372 104.479 58.1182 101.906 59.4355 99.2236C60.3474 100.963 62.3034 101.569 64.1488 102.242C64.9768 102.544 65.8069 102.847 66.6635 103.052C69.6764 103.774 72.9735 103.221 75.5855 101.555L75.7181 101.471C75.4706 103.274 75.5497 104.983 75.7031 106.796C75.9683 109.932 77.4062 112.832 78.8198 115.644" stroke="black" stroke-width="0.884061" stroke-linecap="round" stroke-linejoin="round"/>
<path d="M33.4656 118.546C32.3919 117.542 31.9031 116.041 31.8947 114.585C31.8863 113.13 32.3128 111.704 32.8441 110.345C35.4455 103.693 40.7096 98.1312 47.1633 94.8699C53.6169 91.6086 61.192 90.6265 68.3365 91.8805C69.9 92.155 71.4643 92.54 72.8567 93.2892C74.2491 94.0385 75.4647 95.1776 76.1096 96.6045C76.7545 98.0313 76.7815 99.7597 76.0075 101.125" stroke="black" stroke-width="0.892459" stroke-linecap="round" stroke-linejoin="round"/>
<path d="M76.0571 96.4307C77.6405 97.2263 78.8468 98.6483 79.6278 100.238C80.4089 101.827 80.7961 103.581 81.0472 105.334C81.5471 108.826 81.4777 112.594 79.6499 115.611" stroke="black" stroke-width="0.892459" stroke-linecap="round" stroke-linejoin="round"/>
<path d="M79.1692 116.785C79.4813 116.298 80.177 116.15 80.7163 116.364C81.2556 116.577 81.6366 117.082 81.832 117.627C82.2431 118.774 81.9089 120.075 81.2808 121.119C81.0869 121.45 80.8543 121.757 80.5881 122.033C80.129 122.497 79.5586 122.835 78.9314 123.015" stroke="black" stroke-width="0.892459" stroke-linecap="round" stroke-linejoin="round"/>
<path d="M47.1126 93.9781C47.4437 91.6093 45.9832 89.3474 44.2646 87.684C41.9779 85.4699 38.8073 83.8079 35.6843 84.4241C33.742 84.8073 32.0712 86.0154 30.5621 87.2973C28.7555 88.8305 27.0801 90.5119 25.5534 92.324C24.4355 93.6501 23.3875 95.0646 22.7275 96.6701C22.228 97.8839 21.961 99.1817 21.7935 100.483C21.6353 101.712 21.565 102.975 21.8558 104.179C22.3863 106.374 24.1075 108.169 26.1608 109.108C28.214 110.047 30.5607 110.2 32.797 109.89" stroke="black" stroke-width="0.892459" stroke-linecap="round" stroke-linejoin="round"/>
<path d="M42.5198 144.017L42.8407 143.695C43.319 143.215 43.822 142.689 43.9281 142.02" stroke="black" stroke-width="0.897321" stroke-linecap="round" stroke-linejoin="round"/>
<path d="M68.6414 144.044C68.638 143.845 68.5589 143.655 68.4204 143.513" stroke="black" stroke-width="0.897321" stroke-linecap="round" stroke-linejoin="round"/>
<path d="M34.7966 122.411C34.4187 121.752 34.7117 120.83 35.354 120.424C35.9963 120.019 36.8803 120.108 37.4987 120.549C38.1171 120.99 38.48 121.732 38.5676 122.486C38.3023 122.416 38.0128 122.556 37.8382 122.769C37.6636 122.983 37.5827 123.255 37.5244 123.526C37.337 124.388 37.3352 125.28 37.5191 126.143" stroke="black" stroke-width="0.707248" stroke-linecap="round" stroke-linejoin="round"/>
<path d="M57.2877 130.052C56.676 130.339 56.2238 130.878 55.8228 131.423C54.1958 133.633 53.0752 136.174 52.5408 138.866" stroke="black" stroke-width="0.707248" stroke-linecap="round" stroke-linejoin="round"/>
<path d="M65.2047 130.966C65.5897 134.18 64.4532 137.359 63.3371 140.397C63.3097 140.472 63.2756 140.553 63.2045 140.586C63.1333 140.619 63.0241 140.551 63.0542 140.478" stroke="black" stroke-width="0.707248" stroke-linecap="round" stroke-linejoin="round"/>
<path d="M56.6431 132.604C58.2344 134.519 60.7151 135.662 63.205 135.627C62.4673 136.35 61.3803 136.781 60.4348 137.196C59.633 137.549 58.6941 137.77 57.894 137.417C57.2752 137.141 56.8331 136.545 56.6294 135.897C56.4256 135.249 56.4335 134.552 56.5211 133.878C56.5529 133.633 56.3982 132.616 56.6431 132.604Z" stroke="black" stroke-width="0.707248" stroke-linecap="round" stroke-linejoin="round"/>
<path d="M62.3794 129.329C62.9714 129.203 63.532 128.959 64.0277 128.612C64.5234 128.264 64.944 127.82 65.2645 127.307C65.4298 127.038 65.5678 126.749 65.6261 126.439C65.7636 125.705 65.444 124.973 65.1465 124.289C64.3738 122.514 63.6878 120.62 63.8544 118.69" stroke="black" stroke-width="0.707248" stroke-linecap="round" stroke-linejoin="round"/>
<path d="M68.5328 123.517C68.3405 123.099 68.733 122.646 69.1291 122.412C69.6383 122.115 70.2078 121.936 70.7953 121.889C71.3829 121.842 71.9736 121.927 72.5239 122.138C73.2532 122.424 74.1492 122.215 74.6766 121.636C74.6854 121.626 74.6907 121.613 74.6916 121.6" stroke="black" stroke-width="0.707248" stroke-linecap="round" stroke-linejoin="round"/>
<path d="M58.3018 122.543C58.2718 122.443 58.2361 122.345 58.1948 122.249C57.9367 121.68 57.3134 121.35 56.695 121.26C56.0766 121.169 55.4494 121.279 54.8297 121.36C54.2099 121.442 53.5659 121.493 52.9731 121.298C52.3804 121.102 51.8482 120.597 51.8018 119.974" stroke="black" stroke-width="0.707248" stroke-linecap="round" stroke-linejoin="round"/>
<path d="M53.3174 114.424C54.6957 113.485 56.1805 112.612 57.8301 112.364C57.8943 112.348 57.9619 112.353 58.0233 112.378C58.0927 112.415 58.1236 112.497 58.1471 112.572C58.2736 112.983 58.341 113.41 58.3473 113.84C58.3473 113.979 58.3425 114.125 58.2695 114.243C58.1966 114.36 58.0671 114.432 57.9433 114.496C56.5424 115.219 55.0493 115.748 53.5053 116.067C53.0978 116.151 51.9052 116.47 51.8446 115.872C51.7938 115.357 52.9766 114.658 53.3174 114.424Z" stroke="black" stroke-width="0.707248" stroke-linecap="round" stroke-linejoin="round"/>
<path d="M70.1186 113.1C70.1146 113.05 70.0364 113.089 70.016 113.135C69.7803 113.664 69.5893 114.212 69.4449 114.773C69.4034 114.934 69.3667 115.109 69.4272 115.264C70.7043 116.216 72.3774 116.577 73.9594 116.389C73.4926 114.678 71.8562 113.451 70.1186 113.1Z" stroke="black" stroke-width="0.707248" stroke-linecap="round" stroke-linejoin="round"/>
<path d="M23.4651 290.325C24.0338 275.051 24.3497 259.768 24.4128 244.478C24.4243 241.654 24.4296 238.807 24.9764 236.041C26.4006 228.836 31.7372 222.63 38.4296 220.393" stroke="black" stroke-width="0.860633" stroke-linecap="round" stroke-linejoin="round"/>
<path d="M38.3149 222.604C38.4257 216.662 38.6266 210.723 38.9174 204.787" stroke="black" stroke-width="0.860633" stroke-linecap="round" stroke-linejoin="round"/>
<path d="M55.2119 204.237C54.8689 210.455 54.3385 216.665 53.6206 222.867" stroke="black" stroke-width="0.956112" stroke-linecap="round" stroke-linejoin="round"/>
<path d="M40.0928 203.81C44.3142 201.623 49.4638 201.305 53.9213 202.957C54.5322 203.183 55.2416 203.626 55.1519 204.272C55.0953 204.679 54.728 204.963 54.3792 205.182C52.3185 206.472 49.893 207.077 47.4743 207.325C45.631 207.514 43.7068 207.483 41.9299 206.907C41.0781 206.631 40.206 206.227 39.5221 205.642C38.547 204.809 39.1544 204.297 40.0928 203.81Z" stroke="black" stroke-width="0.860633" stroke-linecap="round" stroke-linejoin="round"/>
<path d="M38.783 214.713C38.8171 214.672 38.7141 214.637 38.6946 214.686C38.6752 214.736 38.7141 214.788 38.7521 214.826C39.2989 215.371 39.9969 215.738 40.6847 216.095C41.3725 216.452 42.0717 216.814 42.8091 217.07C44.6881 217.723 46.7635 217.672 48.7026 217.223C50.6418 216.774 52.4687 215.943 54.247 215.057C54.377 215.09 54.362 215.322 54.2289 215.339C54.0959 215.356 54.0216 215.136 54.1405 215.07" stroke="black" stroke-width="0.865937" stroke-linecap="round" stroke-linejoin="round"/>
<path d="M38.4595 222.558C38.4343 222.966 38.8012 223.277 39.1318 223.517C39.4435 223.751 39.767 223.968 40.1012 224.169C41.4246 224.931 42.9987 225.122 44.5255 225.155C46.1248 225.189 47.7237 225.067 49.2994 224.791C50.8863 224.513 52.5227 224.035 53.6613 222.895" stroke="black" stroke-width="0.860633" stroke-linecap="round" stroke-linejoin="round"/>
<path d="M54.1658 220.467C57.0822 221.795 59.5188 223.989 61.1445 226.751C64.1504 231.885 63.962 238.209 63.6853 244.152L62.4096 271.528C62.38 272.173 62.3274 272.875 61.8938 273.354" stroke="black" stroke-width="0.860633" stroke-linecap="round" stroke-linejoin="round"/>
<path d="M63.4846 236.633C58.4817 240.879 51.9141 243.161 45.3216 243.449C38.7292 243.736 32.1257 242.1 26.2034 239.227C25.5682 238.918 24.864 238.497 24.7637 237.806" stroke="black" stroke-width="0.866379" stroke-linecap="round" stroke-linejoin="round"/>
<path d="M63.131 231.91C60.3533 235.374 56.169 237.587 51.8645 239.079C48.8959 240.108 45.6876 240.294 42.528 240.332C36.3139 240.409 30.0959 238.299 25.3352 234.502L25.6795 234.546" stroke="black" stroke-width="0.861075" stroke-linecap="round" stroke-linejoin="round"/>
<path d="M62.2994 276.637C62.4459 280.471 62.3917 284.309 62.1372 288.137" stroke="black" stroke-width="0.861075" stroke-linecap="round" stroke-linejoin="round"/>
<path d="M23.4846 290.309C25.38 293.739 28.5609 296.48 32.2907 297.896C38.3024 300.18 45.4929 298.186 51.7631 296.693C53.708 296.23 55.6693 295.654 57.2991 294.524C59.5366 292.972 60.9277 290.536 62.1371 288.136" stroke="black" stroke-width="0.848698" stroke-linecap="round" stroke-linejoin="round"/>
<path d="M50.8702 275.889L59.2944 262.241L47.3879 246.403C47.3879 246.403 47.5002 246.122 37.7278 262.915" stroke="black" stroke-width="0.848698" stroke-linecap="round" stroke-linejoin="round"/>
<path d="M37.7278 262.915L47.9497 276.507" stroke="black" stroke-width="0.863285" stroke-linecap="round" stroke-linejoin="round"/>
<path d="M25.6301 265.534L26.2583 248.822C26.2839 248.136 26.3157 247.426 26.6194 246.814C26.9231 246.201 27.5804 245.716 28.239 245.847C29.3264 246.063 29.5293 247.545 29.4802 248.676C29.2816 253.287 29.083 257.897 28.8844 262.507C28.8499 263.307 28.8158 264.114 28.9454 264.904C29.1739 266.298 29.8948 267.549 30.6021 268.763L35.4741 277.127C45.3646 276.967 55.5423 276.871 64.4877 272.559C65.7351 271.958 66.9741 271.266 67.9108 270.232C67.7096 269.761 67.5717 269.127 67.3693 268.658C66.0137 265.508 64.586 262.393 63.086 259.31" stroke="black" stroke-width="0.885387" stroke-linecap="round" stroke-linejoin="round"/>
<path d="M68.5522 273.294C58.8425 278.156 47.9703 280.569 37.1623 280.263C35.8092 280.225 34.4513 280.144 33.1261 279.862C30.1919 275.455 27.7103 270.614 25.6301 265.726" stroke="black" stroke-width="0.885387" stroke-linecap="round" stroke-linejoin="round"/>
<path d="M63.1108 254.776C64.2958 256.992 65.4644 259.217 66.6166 261.451C68.1354 264.395 69.6365 267.384 70.4808 270.601C69.9539 271.726 69.1583 272.715 68.146 273.412" stroke="black" stroke-width="0.885387" stroke-linecap="round" stroke-linejoin="round"/>
<path d="M42.6914 262.522C43.3971 261.675 43.965 260.722 44.3742 259.699" stroke="black" stroke-width="0.44203" stroke-linecap="round" stroke-linejoin="round"/>
<path d="M43.7737 267.462C45.0747 264.51 45.7779 261.328 45.8428 258.102" stroke="black" stroke-width="0.44203" stroke-linecap="round" stroke-linejoin="round"/>
<path d="M45.7019 260.953C46.1778 260.208 46.7098 259.501 47.2932 258.836C47.3202 258.806 47.3613 258.772 47.3971 258.792C47.4329 258.812 47.3732 258.877 47.3653 258.836" stroke="black" stroke-width="0.44203" stroke-linecap="round" stroke-linejoin="round"/>
<path d="M45.1343 264.508C45.4648 264.762 45.7409 265.08 45.9459 265.443C46.151 265.806 46.2808 266.207 46.3278 266.621" stroke="black" stroke-width="0.44203" stroke-linecap="round" stroke-linejoin="round"/>
<path d="M48.1969 263.875C48.0611 261.931 48.0671 259.981 48.215 258.038C49.4695 258.019 50.6595 257.76 51.9139 257.742C52.7675 257.729 53.6246 257.717 54.4693 257.838C54.586 259.701 54.525 261.714 54.4923 263.58" stroke="black" stroke-width="0.44203" stroke-linecap="round" stroke-linejoin="round"/>
<path d="M51.12 259.234C51.2772 260.88 51.2378 262.538 51.0024 264.174" stroke="black" stroke-width="0.44203" stroke-linecap="round" stroke-linejoin="round"/>
<path d="M49.4043 260.718C50.6547 260.734 51.9053 260.73 53.1563 260.707" stroke="black" stroke-width="0.44203" stroke-linecap="round" stroke-linejoin="round"/>
<path d="M51.8335 260.598C52.0383 260.068 52.42 259.626 52.9138 259.346" stroke="black" stroke-width="0.44203" stroke-linecap="round" stroke-linejoin="round"/>
<path d="M49.5183 259.599C49.7251 259.712 49.9016 259.874 50.0332 260.07C50.1648 260.266 50.2476 260.49 50.2746 260.724" stroke="black" stroke-width="0.44203" stroke-linecap="round" stroke-linejoin="round"/>
<path d="M50.875 261.174C50.131 261.71 49.5112 262.399 49.0579 263.196" stroke="black" stroke-width="0.44203" stroke-linecap="round" stroke-linejoin="round"/>
<path d="M51.3804 261.24C52.1516 261.723 52.7453 262.443 53.0725 263.292" stroke="black" stroke-width="0.44203" stroke-linecap="round" stroke-linejoin="round"/>
<path d="M47.9755 267.928L47.9092 267.891C49.291 267.484 50.4473 266.379 50.915 265.018C50.8314 265.062 51.0688 265.346 51.1082 265.433C51.3999 266.074 51.7677 266.702 52.3193 267.14C52.871 267.578 53.6388 267.796 54.2987 267.55" stroke="black" stroke-width="0.44203" stroke-linecap="round" stroke-linejoin="round"/>
<path d="M47.9758 265.832L54.5837 265.692" stroke="black" stroke-width="0.44203" stroke-linecap="round" stroke-linejoin="round"/>
<path d="M50.7847 257.818C51.3448 257.348 51.8751 256.843 52.3724 256.307" stroke="black" stroke-width="0.44203" stroke-linecap="round" stroke-linejoin="round"/>
<path d="M104.06 211.169C124.025 211.169 140.209 206.184 140.209 200.035C140.209 193.885 124.025 188.9 104.06 188.9C84.0952 188.9 67.9106 193.885 67.9106 200.035C67.9106 206.184 84.0952 211.169 104.06 211.169Z" stroke="black" stroke-width="2.65218" stroke-linecap="round" stroke-linejoin="round"/>
<path d="M104.407 211.497C118.241 211.497 129.456 208.201 129.456 204.136C129.456 200.071 118.241 196.775 104.407 196.775C90.5725 196.775 79.3577 200.071 79.3577 204.136C79.3577 208.201 90.5725 211.497 104.407 211.497Z" stroke="black" stroke-width="0.917213" stroke-linecap="round" stroke-linejoin="round"/>
<path d="M67.6218 201.328C67.9312 215.1 67.8711 213.556 67.9012 214.328" stroke="black" stroke-width="0.884061" stroke-linecap="round" stroke-linejoin="round"/>
<path d="M67.911 231.91L67.6458 246.136C67.6458 246.136 99.8636 277.171 133.709 250.273" stroke="black" stroke-width="0.884061" stroke-linecap="round" stroke-linejoin="round"/>
<path d="M139.325 229.746C140.017 201.188 140.209 201.91 140.209 201.91" stroke="black" stroke-width="0.884061" stroke-linecap="round" stroke-linejoin="round"/>
<path d="M67.9014 238.874C67.9014 238.874 101.351 263.841 133.157 242.088" stroke="black" stroke-width="0.884061" stroke-linecap="round" stroke-linejoin="round"/>
<path d="M75.5935 234.176C75.5935 234.176 110.226 253.183 139.325 227.899" stroke="black" stroke-width="0.884061" stroke-linecap="round" stroke-linejoin="round"/>
<path d="M98.6829 231.006C98.6829 231.006 121.927 236.673 139.325 218.655" stroke="black" stroke-width="0.884061" stroke-linecap="round" stroke-linejoin="round"/>
<path d="M113.271 222.011C120.245 221.329 130.343 218.972 137.96 210.855C138.648 210.121 139.289 209.373 139.883 208.609" stroke="black" stroke-width="0.880966" stroke-linecap="round" stroke-linejoin="round"/>
<path d="M75.9939 215.861C75.9939 215.861 69.7851 212.706 67.8694 210.065" stroke="black" stroke-width="0.933568" stroke-linecap="round" stroke-linejoin="round"/>
<path d="M97.7607 222.011H118.459L118.081 227.181L106.289 227.513" stroke="black" stroke-width="0.933568" stroke-linecap="round" stroke-linejoin="round"/>
<path d="M123.621 210.165L123.95 219.193" stroke="black" stroke-width="0.982191" stroke-linecap="round" stroke-linejoin="round"/>
<path d="M88.4985 210.748V216.261" stroke="black" stroke-width="0.933568" stroke-linecap="round" stroke-linejoin="round"/>
<path d="M133.289 214.977L133.709 223.458" stroke="black" stroke-width="0.888923" stroke-linecap="round" stroke-linejoin="round"/>
<path d="M126.333 227.9L126.678 236.031" stroke="black" stroke-width="0.904394" stroke-linecap="round" stroke-linejoin="round"/>
<path d="M131.048 234.319L131.432 242.931" stroke="black" stroke-width="0.904394" stroke-linecap="round" stroke-linejoin="round"/>
<path d="M125.557 246.576V255.703" stroke="black" stroke-width="0.904394" stroke-linecap="round" stroke-linejoin="round"/>
<path d="M108.571 241.032L108.11 250.987" stroke="black" stroke-width="0.904394" stroke-linecap="round" stroke-linejoin="round"/>
<path d="M93.0328 249.933L92.4082 259.451" stroke="black" stroke-width="0.904394" stroke-linecap="round" stroke-linejoin="round"/>
<path d="M82.4945 237.129L81.5251 245.826" stroke="black" stroke-width="0.904394" stroke-linecap="round" stroke-linejoin="round"/>
<path d="M97.6492 189.916V196.775" stroke="black" stroke-width="0.884061" stroke-linecap="round" stroke-linejoin="round"/>
<path d="M116.147 190.387L115.805 197.522" stroke="black" stroke-width="0.884061" stroke-linecap="round" stroke-linejoin="round"/>
<path d="M129.834 192.842L129.014 202.447" stroke="black" stroke-width="0.965394" stroke-linecap="round" stroke-linejoin="round"/>
<path d="M79.4004 203.143V192.573" stroke="black" stroke-width="0.918097" stroke-linecap="round" stroke-linejoin="round"/>
<path d="M84.5732 199.087C84.6692 198.223 85.2478 197.479 85.9281 196.938C86.6084 196.397 87.3978 196.014 88.1285 195.543C88.9283 195.026 89.6554 194.405 90.2905 193.696C90.9752 192.931 91.5657 192.02 91.6608 190.998C92.1386 191.625 93.0563 191.627 93.8218 191.818C95.0728 192.129 96.1036 193.087 96.6866 194.237C97.2697 195.386 97.4403 196.712 97.3744 197.998C97.3585 198.307 97.3241 198.63 97.1464 198.882C96.9227 199.2 96.5275 199.334 96.1686 199.488C95.4354 199.806 94.7809 200.282 94.2511 200.88" fill="white"/>
<path d="M84.5732 199.087C84.6692 198.223 85.2478 197.479 85.9281 196.938C86.6084 196.397 87.3978 196.014 88.1285 195.543C88.9283 195.026 89.6554 194.405 90.2905 193.696C90.9752 192.931 91.5657 192.02 91.6608 190.998C92.1386 191.625 93.0563 191.627 93.8218 191.818C95.0728 192.129 96.1036 193.087 96.6866 194.237C97.2697 195.386 97.4403 196.712 97.3744 197.998C97.3585 198.307 97.3241 198.63 97.1464 198.882C96.9227 199.2 96.5275 199.334 96.1686 199.488C95.4354 199.806 94.7809 200.282 94.2511 200.88" stroke="black" stroke-width="0.618842" stroke-linecap="round" stroke-linejoin="round"/>
<path d="M91.814 191.462C91.9695 192.809 91.4303 194.218 90.4149 195.117C90.365 195.161 90.3155 195.25 90.3707 195.282" stroke="black" stroke-width="0.618842" stroke-linecap="round" stroke-linejoin="round"/>
<path d="M92.0034 191.508C92.5067 192.829 92.6167 194.269 92.3199 195.651" stroke="black" stroke-width="0.618842" stroke-linecap="round" stroke-linejoin="round"/>
<path d="M92.3149 191.801C92.8454 192.296 93.489 192.653 94.0893 193.064C94.6895 193.474 95.2686 193.961 95.5842 194.616C95.5926 194.633 95.6001 194.655 95.5877 194.669C95.5754 194.683 95.5435 194.66 95.5612 194.65" stroke="black" stroke-width="0.618842" stroke-linecap="round" stroke-linejoin="round"/>
<path d="M103.223 197.434C103.759 196.71 104.47 196.133 105.289 195.758C106.458 195.225 107.866 195.083 108.754 194.156C109.228 193.659 109.485 193 109.73 192.358C109.841 192.595 109.813 192.871 109.863 193.127C109.913 193.384 110.104 193.658 110.364 193.635C110.624 193.613 110.755 193.319 110.835 193.071C110.897 192.875 110.96 192.679 111.024 192.483C111.18 192.882 111.375 193.264 111.606 193.623C111.73 193.814 111.863 193.999 111.997 194.184L112.642 195.076C112.826 195.332 113.012 195.589 113.233 195.814C113.498 196.083 113.808 196.302 114.097 196.544C114.372 196.773 114.629 197.023 114.866 197.291C115.252 197.729 115.599 198.264 115.573 198.846C115.553 199.281 115.327 199.678 115.078 200.035C114.395 201.009 113.501 201.817 112.463 202.398C112.087 202.607 111.687 202.788 111.26 202.84C110.748 202.903 110.226 202.777 109.713 202.854" fill="white"/>
<path d="M103.223 197.434C103.759 196.71 104.47 196.133 105.289 195.758C106.458 195.225 107.866 195.083 108.754 194.156C109.228 193.659 109.485 193 109.73 192.358C109.841 192.595 109.813 192.871 109.863 193.127C109.913 193.384 110.104 193.658 110.364 193.635C110.624 193.613 110.755 193.319 110.835 193.071C110.897 192.875 110.96 192.679 111.024 192.483C111.18 192.882 111.375 193.264 111.606 193.623C111.73 193.814 111.863 193.999 111.997 194.184L112.642 195.076C112.826 195.332 113.012 195.589 113.233 195.814C113.498 196.083 113.808 196.302 114.097 196.544C114.372 196.773 114.629 197.023 114.866 197.291C115.252 197.729 115.599 198.264 115.573 198.846C115.553 199.281 115.327 199.678 115.078 200.035C114.395 201.009 113.501 201.817 112.463 202.398C112.087 202.607 111.687 202.788 111.26 202.84C110.748 202.903 110.226 202.777 109.713 202.854" stroke="black" stroke-width="0.618842" stroke-linecap="round" stroke-linejoin="round"/>
<path d="M112.074 198.364C112.034 198.355 112.084 198.432 112.106 198.397C112.128 198.363 112.094 198.321 112.062 198.294C111.736 198.001 111.532 197.6 111.338 197.208C110.797 196.125 110.246 195.011 110.129 193.804C110.123 193.743 110.176 193.653 110.218 193.699C110.137 194.05 109.92 194.234 109.801 194.573C109.669 194.966 109.498 195.345 109.289 195.703C108.915 196.329 108.394 196.854 107.772 197.235" stroke="black" stroke-width="0.618842" stroke-linecap="round" stroke-linejoin="round"/>
<path d="M111.036 193.446C111.254 194.609 111.804 195.683 112.619 196.541C112.981 196.919 113.407 197.275 113.57 197.772" stroke="black" stroke-width="0.618842" stroke-linecap="round" stroke-linejoin="round"/>
<path d="M94.8399 206.109C95.2218 206.456 95.716 206.652 96.2102 206.807C98.236 207.446 100.423 207.515 102.51 207.119C104.597 206.724 106.584 205.872 108.376 204.732C108.692 204.531 109.011 204.313 109.222 204.003C109.447 203.673 109.532 203.271 109.61 202.879C109.699 202.447 109.784 201.992 109.649 201.572C109.547 201.254 109.327 200.988 109.094 200.748C108.291 199.924 107.295 199.314 106.195 198.974C105.642 198.803 105.059 198.7 104.553 198.418C103.455 197.808 102.957 196.515 102.583 195.315C102.227 195.791 102.022 196.361 101.722 196.874C101.379 197.454 100.92 197.956 100.373 198.348C99.8256 198.741 99.2029 199.016 98.5441 199.155C98.0353 199.259 97.5111 199.28 97.0063 199.404C96.1221 199.622 95.341 200.141 94.7961 200.871" fill="white"/>
<path d="M94.8399 206.109C95.2218 206.456 95.716 206.652 96.2102 206.807C98.236 207.446 100.423 207.515 102.51 207.119C104.597 206.724 106.584 205.872 108.376 204.732C108.692 204.531 109.011 204.313 109.222 204.003C109.447 203.673 109.532 203.271 109.61 202.879C109.699 202.447 109.784 201.992 109.649 201.572C109.547 201.254 109.327 200.988 109.094 200.748C108.291 199.924 107.295 199.314 106.195 198.974C105.642 198.803 105.059 198.7 104.553 198.418C103.455 197.808 102.957 196.515 102.583 195.315C102.227 195.791 102.022 196.361 101.722 196.874C101.379 197.454 100.92 197.956 100.373 198.348C99.8256 198.741 99.2029 199.016 98.5441 199.155C98.0353 199.259 97.5111 199.28 97.0063 199.404C96.1221 199.622 95.341 200.141 94.7961 200.871" stroke="black" stroke-width="0.618842" stroke-linecap="round" stroke-linejoin="round"/>
<path d="M99.0234 200.831C99.7669 200.69 100.305 200.063 100.776 199.47C101.59 198.441 102.421 197.279 102.376 195.968C102.111 198.101 103.039 200.117 103.232 202.258" stroke="black" stroke-width="0.618842" stroke-linecap="round" stroke-linejoin="round"/>
<path d="M102.737 196.004C102.69 197.146 103.048 198.268 103.75 199.171C104.451 200.073 105.449 200.699 106.567 200.936C106.599 200.943 106.637 200.947 106.658 200.922C106.679 200.897 106.638 200.849 106.619 200.876" stroke="black" stroke-width="0.618842" stroke-linecap="round" stroke-linejoin="round"/>
<path d="M83.6033 200.422C82.5663 201.116 81.6995 202.217 81.684 203.464C81.6672 204.85 82.7215 206.072 83.976 206.659C85.2304 207.246 86.6564 207.325 88.0426 207.357C90.232 207.409 92.5072 207.355 94.4755 206.396C95.5806 205.858 96.6216 204.908 96.7087 203.684C96.7922 202.515 95.9762 201.458 95.0289 200.773C94.0817 200.087 92.9686 199.648 92.0258 198.954C91.5776 198.624 91.1656 198.219 90.8685 197.746C90.713 197.499 90.5534 196.613 90.3447 196.479C89.8996 196.195 89.5111 196.995 89.2397 197.313C87.7788 199.018 85.4095 199.213 83.6033 200.422Z" fill="white" stroke="black" stroke-width="0.618842" stroke-linecap="round" stroke-linejoin="round"/>
<path d="M89.6968 196.803C89.4245 197.472 89.1451 198.142 88.757 198.751C88.0164 199.907 86.9207 200.791 85.6345 201.271" stroke="black" stroke-width="0.618842" stroke-linecap="round" stroke-linejoin="round"/>
<path d="M90.1648 196.639C89.8273 197.602 89.8107 198.648 90.1174 199.621C90.4241 200.595 91.0376 201.442 91.8661 202.038" stroke="black" stroke-width="0.618842" stroke-linecap="round" stroke-linejoin="round"/>
<path d="M120.588 198.129C121.808 196.808 122.667 195.195 123.083 193.446L123.189 194.222C123.39 194.33 123.651 194.244 123.812 194.081C123.973 193.919 124.056 193.698 124.135 193.484C124.04 194.661 124.4 195.834 124.931 196.89C125.242 197.513 125.624 198.117 126.168 198.554C127.18 199.369 128.674 199.545 129.461 200.579C130.066 201.375 130.049 202.584 129.422 203.364C129.187 203.656 128.883 203.885 128.565 204.085C127.588 204.7 126.472 205.062 125.32 205.138C125.164 205.149 124.995 205.159 124.878 205.264" fill="white"/>
<path d="M120.588 198.129C121.808 196.808 122.667 195.195 123.083 193.446L123.189 194.222C123.39 194.33 123.651 194.244 123.812 194.081C123.973 193.919 124.056 193.698 124.135 193.484C124.04 194.661 124.4 195.834 124.931 196.89C125.242 197.513 125.624 198.117 126.168 198.554C127.18 199.369 128.674 199.545 129.461 200.579C130.066 201.375 130.049 202.584 129.422 203.364C129.187 203.656 128.883 203.885 128.565 204.085C127.588 204.7 126.472 205.062 125.32 205.138C125.164 205.149 124.995 205.159 124.878 205.264" stroke="black" stroke-width="0.613096" stroke-linecap="round" stroke-linejoin="round"/>
<path d="M123.571 194.272C123.405 196.249 124.266 198.283 125.8 199.541" stroke="black" stroke-width="0.613096" stroke-linecap="round" stroke-linejoin="round"/>
<path d="M123.278 194.401C123.326 195.771 122.628 197.047 121.952 198.24" stroke="black" stroke-width="0.613096" stroke-linecap="round" stroke-linejoin="round"/>
<path d="M113.509 206.499C112.912 206.348 112.303 206.123 111.893 205.664C111.44 205.157 111.299 204.426 111.397 203.752C111.496 203.078 111.809 202.456 112.175 201.883C112.673 201.104 113.3 200.373 114.129 199.962C114.587 199.735 115.092 199.613 115.557 199.4C116.423 199.003 117.125 198.295 117.623 197.482C118.121 196.669 118.427 195.751 118.643 194.823C118.717 195.399 118.828 195.971 118.973 196.534C119.466 196.154 119.804 195.607 119.923 194.996L120.213 197.668C120.246 197.97 120.282 198.281 120.418 198.552C120.681 199.076 121.258 199.35 121.793 199.587L123.51 200.349C124.058 200.592 124.629 200.852 125.005 201.321C125.25 201.626 125.394 202 125.503 202.376C125.654 202.89 125.746 203.44 125.618 203.96C125.387 204.89 124.506 205.512 123.625 205.89C122.384 206.421 121.037 206.638 119.696 206.712C118.417 206.784 117.105 206.801 115.828 206.794C115.046 206.79 114.267 206.691 113.509 206.499Z" fill="white" stroke="black" stroke-width="0.613096" stroke-linecap="round" stroke-linejoin="round"/>
<path d="M118.986 196.71C118.491 198.381 117.616 199.914 116.43 201.191" stroke="black" stroke-width="0.613096" stroke-linecap="round" stroke-linejoin="round"/>
<path d="M119.212 196.539C119.214 197.448 119.409 198.346 119.783 199.175C120.157 200.003 120.703 200.743 121.384 201.345L121.273 201.244" stroke="black" stroke-width="0.613096" stroke-linecap="round" stroke-linejoin="round"/>
<path d="M176.469 242.209C199.629 240.837 218.128 235.086 217.789 229.364C217.45 223.642 198.401 220.115 175.241 221.487C152.082 222.859 133.582 228.61 133.921 234.332C134.26 240.054 153.309 243.581 176.469 242.209Z" stroke="black" stroke-width="2.65218" stroke-linecap="round" stroke-linejoin="round"/>
<path d="M133.499 236.445C133.499 236.445 133.672 293.639 170.895 293.534C208.118 293.428 217.249 257.115 218.162 231.738" stroke="black" stroke-width="0.889365" stroke-linecap="round" stroke-linejoin="round"/>
<path d="M136.568 259.235C136.568 259.235 174.39 275.419 214.002 258.102" stroke="black" stroke-width="0.888481" stroke-linecap="round" stroke-linejoin="round"/>
<path d="M136.042 255.826C136.042 255.826 174.512 272.01 214.807 254.692" stroke="black" stroke-width="1.32609" stroke-linecap="round" stroke-linejoin="round"/>
<path d="M135.457 252.836C135.457 252.836 174.444 269.02 215.283 251.702" stroke="black" stroke-width="0.901742" stroke-linecap="round" stroke-linejoin="round"/>
<path d="M144.589 229.573C145.037 230.373 145.993 230.784 146.91 230.816C147.827 230.847 148.723 230.559 149.589 230.257C152.311 229.307 154.993 228.171 157.837 227.7C160.681 227.229 163.784 227.497 166.14 229.159" stroke="black" stroke-width="0.44203" stroke-linecap="round" stroke-linejoin="round"/>
<path d="M141.102 233.461C145.598 232.999 150.141 233.326 154.525 234.428C157.563 235.192 160.499 236.323 163.538 237.085C166.576 237.846 169.792 238.231 172.833 237.477C175.198 236.892 177.342 235.649 179.633 234.816C181.924 233.983 184.564 233.591 186.734 234.699" stroke="black" stroke-width="0.44203" stroke-linecap="round" stroke-linejoin="round"/>
<path d="M161.642 233.977C163.937 233.277 166.375 233.19 168.715 233.724C170.014 234.022 171.273 234.511 172.597 234.662C175.812 235.031 178.896 233.385 181.589 231.59C182.183 231.192 182.803 230.75 183.058 230.081C183.313 229.412 182.996 228.487 182.29 228.379" stroke="black" stroke-width="0.44203" stroke-linecap="round" stroke-linejoin="round"/>
<path d="M187.01 225.933C188.628 225.702 190.274 225.961 191.879 226.27C192.741 226.435 193.618 226.623 194.376 227.065C195.135 227.507 195.768 228.253 195.854 229.126C195.93 229.899 195.567 230.669 195.021 231.22C194.475 231.771 193.764 232.13 193.037 232.403C191.147 233.11 189.101 233.299 187.114 232.95C186.951 232.921 186.696 233.007 186.78 233.149" stroke="black" stroke-width="0.44203" stroke-linecap="round" stroke-linejoin="round"/>
<path d="M196.804 226.427C198.275 226.201 199.815 225.981 201.219 226.471C201.675 226.631 202.103 226.861 202.563 227.012C203.817 227.425 205.212 227.207 206.419 226.671" stroke="black" stroke-width="0.44203" stroke-linecap="round" stroke-linejoin="round"/>
<path d="M204.514 228.409C204.53 229.731 203.907 231.004 203.019 231.984C202.131 232.964 200.993 233.683 199.826 234.304C198.182 235.18 196.422 235.895 194.568 236.089C193.436 236.207 192.132 236.196 191.389 237.058" stroke="black" stroke-width="0.44203" stroke-linecap="round" stroke-linejoin="round"/>
<path d="M173.138 226.271C172.062 225.623 170.742 225.494 169.491 225.611C168.239 225.727 167.021 226.068 165.786 226.301C164.434 226.556 163.061 226.679 161.686 226.67C160.846 226.664 159.962 226.597 159.245 226.156" stroke="black" stroke-width="0.44203" stroke-linecap="round" stroke-linejoin="round"/>
<path d="M147.177 237.161C148.161 236.651 149.309 236.592 150.417 236.57C151.434 236.55 152.472 236.556 153.438 236.875C154.057 237.079 154.624 237.405 155.22 237.665C156.884 238.391 158.726 238.606 160.513 238.284" stroke="black" stroke-width="0.44203" stroke-linecap="round" stroke-linejoin="round"/>
<path d="M170.058 229.703C170.779 229.463 171.484 230.032 172.121 230.444C173.008 231.015 174.036 231.329 175.09 231.353C177.124 231.394 179.027 230.357 181.05 230.159" stroke="black" stroke-width="0.44203" stroke-linecap="round" stroke-linejoin="round"/>
<path d="M204.792 234.376C205.042 233.467 205.63 232.689 206.436 232.201C207.157 231.77 208.001 231.601 208.779 231.278C210.041 230.748 211.096 229.822 211.785 228.639" stroke="black" stroke-width="0.44203" stroke-linecap="round" stroke-linejoin="round"/>
<path d="M184.457 227.834C185.359 227.729 186.279 227.626 187.171 227.798C188.032 227.965 188.822 228.381 189.653 228.659C190.484 228.937 191.431 229.067 192.215 228.674" stroke="black" stroke-width="0.44203" stroke-linecap="round" stroke-linejoin="round"/>
<path d="M181.296 224.176C181.476 224.81 182.208 225.145 182.868 225.121C183.527 225.097 184.141 224.806 184.761 224.582C186.856 223.828 189.143 223.792 191.261 224.479C192.09 224.75 192.89 225.133 193.751 225.272C196.421 225.703 199.27 223.758 201.738 224.864" stroke="black" stroke-width="0.44203" stroke-linecap="round" stroke-linejoin="round"/>
<path d="M149.71 229.941C151.584 228.235 154.211 227.392 156.727 227.686C157.4 227.765 158.126 227.912 158.723 227.591" stroke="black" stroke-width="0.44203" stroke-linecap="round" stroke-linejoin="round"/>
<path d="M143.989 236.071C144.337 235.466 145.104 235.272 145.789 235.135C147.336 234.826 149.026 234.533 150.427 235.259C151.119 235.618 151.669 236.193 152.286 236.671C153.896 237.906 155.927 238.459 157.941 238.211" stroke="black" stroke-width="0.44203" stroke-linecap="round" stroke-linejoin="round"/>
<path d="M153.576 233.083C155.208 232.006 157.455 231.946 159.141 232.936C160.281 233.605 161.186 234.71 162.456 235.072C163.959 235.499 165.527 234.775 166.89 234.014C168.254 233.253 169.712 232.405 171.264 232.575" stroke="black" stroke-width="0.44203" stroke-linecap="round" stroke-linejoin="round"/>
<path d="M179.818 226.482C181.02 226.299 182.323 226.133 183.392 226.713C184.155 227.126 184.68 227.859 185.305 228.461C186.341 229.454 187.662 230.098 189.082 230.303" stroke="black" stroke-width="0.44203" stroke-linecap="round" stroke-linejoin="round"/>
<path d="M186.396 231.709C187.793 232.52 189.674 232.402 190.96 231.423C191.646 230.899 192.149 230.177 192.762 229.569C193.837 228.51 195.223 227.824 196.717 227.61C197.589 227.488 198.583 227.576 199.176 228.226C199.651 228.745 199.985 229.647 200.679 229.545C200.876 229.515 201.141 229.428 201.228 229.607" stroke="black" stroke-width="0.44203" stroke-linecap="round" stroke-linejoin="round"/>
<path d="M209.559 225.462C209.143 226.978 207.987 228.219 206.615 228.984C205.242 229.749 203.667 230.079 202.101 230.212C201.222 230.288 200.325 230.307 199.487 230.586C198.649 230.864 197.859 231.463 197.62 232.313" stroke="black" stroke-width="0.44203" stroke-linecap="round" stroke-linejoin="round"/>
<path d="M177.879 238.007C178.933 238.372 180.071 238.416 181.15 238.134C182.148 237.869 183.051 237.338 183.986 236.899C187.586 235.213 191.699 234.93 195.662 235.244" stroke="black" stroke-width="0.44203" stroke-linecap="round" stroke-linejoin="round"/>
<path d="M141.366 236.76C142.25 236.383 143.239 236.331 144.158 236.612C145.278 236.959 146.187 237.769 147.224 238.315C149.23 239.369 151.635 239.384 153.864 238.978C156.094 238.572 158.234 237.774 160.444 237.274" stroke="black" stroke-width="0.44203" stroke-linecap="round" stroke-linejoin="round"/>
<path d="M162.207 234.402C164.359 233.747 166.785 234.058 168.704 235.232C169.664 235.82 170.493 236.606 171.477 237.15C172.667 237.804 174.027 238.078 175.377 237.936" stroke="black" stroke-width="0.44203" stroke-linecap="round" stroke-linejoin="round"/>
<path d="M161.75 232.074C163.364 232.812 165.26 232.339 166.922 231.711C168.583 231.082 170.269 230.288 172.04 230.417" stroke="black" stroke-width="0.44203" stroke-linecap="round" stroke-linejoin="round"/>
<path d="M144.384 230.279C146.26 231.535 148.655 231.775 150.9 231.531C153.144 231.287 155.314 230.603 157.526 230.152C159.738 229.701 162.075 229.491 164.223 230.183" stroke="black" stroke-width="0.44203" stroke-linecap="round" stroke-linejoin="round"/>
<path d="M180.69 226.718C182.166 226.817 183.421 227.786 184.803 228.314C187.217 229.236 189.966 228.771 192.343 227.758" stroke="black" stroke-width="0.44203" stroke-linecap="round" stroke-linejoin="round"/>
<path d="M181.503 235.326C181.679 236.05 182.404 236.492 183.094 236.777C186.344 238.118 190.291 237.593 193.077 235.451C194.365 234.46 195.464 233.13 197.008 232.626C198.674 232.083 200.507 232.622 202.234 232.322" stroke="black" stroke-width="0.44203" stroke-linecap="round" stroke-linejoin="round"/>
<path d="M159.831 239.698C156.282 237.464 151.644 237.986 147.764 236.397C146.862 236.028 146.006 235.546 145.08 235.239C143.192 234.612 141.146 234.75 139.161 234.896" stroke="black" stroke-width="0.44203" stroke-linecap="round" stroke-linejoin="round"/>
<path d="M143.413 231.245C144.771 232.555 146.816 232.938 148.689 232.697C150.561 232.456 152.311 231.669 154.034 230.9C155.757 230.131 157.519 229.361 159.395 229.159C161.841 228.907 164.288 229.631 166.202 231.175" stroke="black" stroke-width="0.44203" stroke-linecap="round" stroke-linejoin="round"/>
<path d="M172.34 232.71C173.527 233.638 175.237 233.443 176.668 232.97C178.098 232.497 179.504 231.785 181.011 231.818C181.926 231.837 182.812 232.134 183.72 232.245C185.831 232.503 187.92 231.758 189.917 231.023" stroke="black" stroke-width="0.44203" stroke-linecap="round" stroke-linejoin="round"/>
<path d="M179.278 228.804C179.826 228.566 180.435 228.425 181.024 228.529C181.613 228.633 182.173 229.015 182.377 229.578C182.518 229.969 182.483 230.418 182.674 230.785C182.97 231.36 183.684 231.545 184.315 231.672" stroke="black" stroke-width="0.44203" stroke-linecap="round" stroke-linejoin="round"/>
<path d="M163.043 237.878C163.649 238.533 164.614 238.687 165.502 238.766C172.326 239.376 179.224 237.811 185.498 235.059" stroke="black" stroke-width="0.44203" stroke-linecap="round" stroke-linejoin="round"/>
<path d="M176.123 239.321C177.884 239.529 179.661 239.029 181.273 238.289C182.884 237.549 184.374 236.572 185.943 235.745C188.949 234.164 192.221 233.148 195.594 232.747" stroke="black" stroke-width="0.44203" stroke-linecap="round" stroke-linejoin="round"/>
<path d="M173.196 224.331C172.276 224.256 171.37 224.623 170.599 225.131C169.829 225.64 169.163 226.289 168.445 226.867C166.225 228.647 163.534 229.741 160.702 230.014" stroke="black" stroke-width="0.44203" stroke-linecap="round" stroke-linejoin="round"/>
<path d="M147.227 228.592C145.689 228.683 144.136 228.88 142.712 229.468C141.924 229.794 141.148 230.276 140.76 231.035C140.371 231.795 140.523 232.874 141.264 233.296" stroke="black" stroke-width="0.44203" stroke-linecap="round" stroke-linejoin="round"/>
<path d="M139.367 232.962L139.195 232.898C138.873 233.863 139.46 234.983 140.375 235.431C140.687 235.584 141.027 235.671 141.364 235.757L144.547 236.568" stroke="black" stroke-width="0.44203" stroke-linecap="round" stroke-linejoin="round"/>
<path d="M164.139 238.904C166.205 239.206 168.294 239.493 170.375 239.338C174.726 239.013 178.888 236.777 183.231 237.196" stroke="black" stroke-width="0.44203" stroke-linecap="round" stroke-linejoin="round"/>
<path d="M183.849 237.837C186.353 237.539 188.883 237.528 191.395 237.3C193.906 237.073 196.438 236.616 198.695 235.491C199.93 234.874 201.217 234.035 202.574 234.294" stroke="black" stroke-width="0.44203" stroke-linecap="round" stroke-linejoin="round"/>
<path d="M185.593 144.725C185.679 144.897 185.851 145.007 186.023 145.094C186.166 145.167 186.323 145.23 186.483 145.215C186.58 145.204 186.673 145.17 186.755 145.116C187.004 144.959 187.157 144.674 187.187 144.379C187.242 143.822 186.776 142.851 186.081 143.041C185.489 143.202 185.358 144.255 185.593 144.725Z" fill="black"/>
<path d="M175.607 145.147C175.776 145.591 176.266 145.929 176.727 145.814C177.037 145.737 177.279 145.475 177.383 145.174C177.62 144.491 177.256 143.411 176.417 143.39C175.592 143.371 175.377 144.545 175.607 145.147Z" fill="black"/>
<path d="M176.102 144.963C176.147 145.051 176.218 145.122 176.306 145.167C176.395 145.211 176.495 145.226 176.592 145.209C176.656 145.195 176.715 145.167 176.765 145.126C176.815 145.085 176.854 145.032 176.88 144.973C176.983 144.721 176.824 144.323 176.456 144.315C176.096 144.308 176.001 144.74 176.102 144.963Z" fill="white"/>
<path d="M185.75 144.494C185.794 144.583 185.866 144.654 185.954 144.698C186.042 144.743 186.143 144.758 186.24 144.741C186.303 144.727 186.362 144.699 186.412 144.658C186.462 144.616 186.502 144.564 186.527 144.505C186.631 144.252 186.472 143.854 186.104 143.847C185.745 143.839 185.65 144.272 185.75 144.494Z" fill="white"/>
<path d="M188.968 143.959C188.937 143.42 188.79 142.894 188.539 142.416C188.313 141.99 187.983 141.59 187.529 141.426C186.998 141.235 186.38 141.411 185.954 141.78C185.528 142.149 185.273 142.684 185.14 143.232C185.033 143.675 184.998 144.138 185.111 144.577C185.187 144.872 185.376 145.32 185.661 145.476C185.982 145.653 186.358 145.371 186.66 145.229C187.455 144.855 188.226 144.431 188.968 143.959V143.959Z" stroke="black" stroke-width="0.40711" stroke-linecap="round" stroke-linejoin="round"/>
<path d="M177.304 146.299C177.75 145.768 177.807 145.001 177.642 144.329C177.484 143.686 177.129 143.077 176.59 142.694C176.05 142.31 175.318 142.175 174.704 142.425C173.996 142.712 173.248 143.825 174.022 144.414C174.998 145.158 176.238 145.689 177.304 146.299Z" stroke="black" stroke-width="0.40711" stroke-linecap="round" stroke-linejoin="round"/>
<path d="M181.657 148.092C180.963 148.203 180.217 147.831 179.889 147.207C179.561 146.584 179.674 145.76 180.158 145.249C180.379 145.016 180.735 144.845 181.015 145.002" stroke="black" stroke-width="0.618842" stroke-linecap="round" stroke-linejoin="round"/>
<path d="M166.755 135.91C166.254 139.645 165.926 143.397 165.772 147.167C165.732 148.142 165.707 149.139 165.999 150.07C166.308 151.055 166.949 151.897 167.623 152.678C169.254 154.568 171.136 156.224 173.217 157.602C175.772 159.292 178.171 160.532 181.149 161.251C182.784 161.645 184.503 161.882 186.136 161.486C187.77 161.09 189.303 159.952 189.781 158.341C190.333 158.188 191.163 157.628 191.672 157.364C194.324 155.991 196.738 154.066 198.372 151.567C200.007 149.067 200.808 145.962 200.24 143.03C200.729 143.124 201.401 142.961 201.787 142.644C202.173 142.328 202.45 141.903 202.705 141.474C203.223 140.603 203.678 139.672 203.836 138.671C203.995 137.67 203.836 136.584 203.223 135.776C202.61 134.968 201.499 134.51 200.536 134.823C199.333 135.215 198.754 136.547 198.349 137.746" stroke="black" stroke-width="0.884061" stroke-linecap="round" stroke-linejoin="round"/>
<path d="M200.03 141.95C200.346 141.216 199.979 140.263 199.254 139.93C199.202 139.9 199.141 139.888 199.081 139.897C199.023 139.912 198.976 139.979 199.003 140.032C199.035 139.412 199.168 138.8 199.398 138.223C199.538 137.869 199.722 137.522 200.017 137.282C200.311 137.043 200.735 136.933 201.077 137.093C201.42 137.254 201.608 137.73 201.393 138.043" stroke="black" stroke-width="0.44203" stroke-linecap="round" stroke-linejoin="round"/>
<path d="M198.475 136.805C197.693 137.813 196.102 137.893 194.999 137.251C193.896 136.61 193.212 135.432 192.768 134.236C191.944 132.003 191.784 129.58 192.31 127.259C190.589 129.128 188.589 130.719 186.381 131.976C184.762 132.898 182.74 133.632 181.09 132.767C180.767 132.598 180.467 132.365 180.285 132.049C179.998 131.554 180.041 130.935 180.173 130.378C180.473 129.118 181.016 127.973 182.018 127.151C182.067 127.23 182.14 127.041 182.048 127.031C181.955 127.021 181.899 127.126 181.867 127.213C180.725 130.348 178.123 132.915 174.974 134.017C173.951 134.375 172.687 134.537 171.896 133.796C171.395 133.326 171.221 132.605 171.163 131.921C171.075 130.871 171.146 130.239 171.483 129.24C171.327 130.642 171.137 132.069 170.517 133.336C169.898 134.603 168.769 135.701 167.376 135.923C167.204 135.958 167.027 135.958 166.855 135.923C166.187 135.758 166.013 134.896 166.019 134.207C166.048 131.412 166.854 128.68 168.346 126.317C169.974 123.747 172.272 121.291 174.748 119.523C176.172 118.506 177.722 117.636 179.404 117.154C181.152 116.653 182.992 116.585 184.81 116.543C186.984 116.493 189.186 116.479 191.298 116.998C193.409 117.518 195.453 118.631 196.674 120.429C196.349 119.553 196.316 118.532 196.906 117.806C197.205 117.446 197.592 117.167 198.029 116.998C198.466 116.828 198.939 116.773 199.404 116.837C199.559 116.86 199.728 116.908 199.809 117.042C199.903 117.199 199.836 117.4 199.756 117.564C199.406 118.27 198.844 118.848 198.148 119.217C199.126 118.21 200.414 117.56 201.805 117.37C201.95 117.351 202.101 117.337 202.239 117.385C202.619 117.517 202.698 118.063 202.489 118.407C202.28 118.751 201.893 118.937 201.527 119.105L199.111 120.212C198.527 120.48 197.844 120.906 197.899 121.546C197.92 121.797 198.058 122.019 198.188 122.235C200.162 125.534 200.976 129.398 200.502 133.213" stroke="black" stroke-width="0.884061" stroke-linecap="round" stroke-linejoin="round"/>
<path d="M182.605 152.752C183.914 152.573 185.081 151.86 186.202 151.164C187.155 150.573 188.201 149.849 188.381 148.742C188.481 149.031 188.802 149.197 189.108 149.208C189.414 149.219 189.71 149.108 189.996 148.999L190.911 148.65" stroke="black" stroke-width="0.530436" stroke-linecap="round" stroke-linejoin="round"/>
<path d="M188.38 149.219C188.577 150.014 188.739 150.817 188.866 151.625C189.005 152.515 189.063 153.536 188.455 154.199C187.956 154.741 187.16 154.872 186.425 154.922C186.069 154.947 185.708 154.959 185.36 154.881C184.585 154.704 183.984 154.11 183.43 153.54C183.185 153.289 182.923 152.998 182.926 152.647" stroke="black" stroke-width="0.530436" stroke-linecap="round" stroke-linejoin="round"/>
<path d="M183.743 153.535C185.793 153.419 187.71 151.994 188.413 150.064" stroke="black" stroke-width="0.530436" stroke-linecap="round" stroke-linejoin="round"/>
<path d="M186.137 154.614C186.518 153.606 187.749 153.011 188.776 153.339" stroke="black" stroke-width="0.530436" stroke-linecap="round" stroke-linejoin="round"/>
<path d="M172.876 140.657C172.955 140.386 173.117 140.145 173.3 139.93C173.682 139.485 174.154 139.127 174.685 138.88C175.216 138.632 175.794 138.501 176.38 138.495C176.608 138.495 176.866 138.529 176.998 138.716C177.106 138.869 177.089 139.085 176.998 139.247C176.908 139.408 176.754 139.529 176.595 139.628C175.913 140.054 175.086 140.181 174.361 140.528C173.875 140.761 173.441 141.09 173.085 141.495C172.872 141.74 172.834 140.798 172.876 140.657Z" stroke="black" stroke-width="0.530436" stroke-linecap="round" stroke-linejoin="round"/>
<path d="M188.752 140.102C188.905 140.088 189.07 140.038 189.152 139.907C189.26 139.736 189.177 139.509 189.058 139.344C188.748 138.925 188.241 138.712 187.751 138.536C187.261 138.36 186.765 138.204 186.248 138.147C185.944 138.114 185.629 138.117 185.338 138.211C185.046 138.305 184.777 138.496 184.636 138.769C184.588 138.855 184.564 138.952 184.567 139.05C184.583 139.278 184.795 139.439 185 139.536C185.629 139.838 186.306 139.817 186.984 139.805C187.596 139.794 188.143 140.157 188.752 140.102Z" stroke="black" stroke-width="0.530436" stroke-linecap="round" stroke-linejoin="round"/>
<path d="M167.406 155.432C163.363 159.363 159.902 163.947 157.619 169.104C155.336 174.26 154.265 180.007 154.961 185.603C155.212 187.623 155.708 189.657 156.803 191.373C157.683 192.754 158.913 193.87 160.14 194.954C164.545 198.84 169.414 202.662 175.21 203.624C175.321 200.178 176.318 196.82 178.103 193.871C173.631 190.656 168.088 189.394 162.711 188.205C165.051 181.291 166.579 174.129 167.264 166.862C167.409 165.309 167.5 163.663 166.797 162.27C166.094 160.878 164.31 159.911 162.927 160.633" stroke="black" stroke-width="0.884061" stroke-linecap="round" stroke-linejoin="round"/>
<path d="M206.693 177.741C203.425 174.915 201.008 171.192 199.338 167.206C198.496 165.196 197.828 163.067 197.835 160.885C197.843 158.703 198.602 156.453 200.235 155.008C200.367 154.891 200.69 154.929 200.585 155.072" stroke="black" stroke-width="0.884061" stroke-linecap="round" stroke-linejoin="round"/>
<path d="M208.209 177.751C205.737 178.492 203.387 179.593 201.101 180.791C199.479 181.64 197.83 182.587 196.766 184.077C196.678 184.199 196.795 184.463 196.861 184.328" stroke="black" stroke-width="0.884061" stroke-linecap="round" stroke-linejoin="round"/>
<path d="M196.851 183.843C196.525 184.618 196.643 185.5 196.799 186.325C197.113 187.997 197.557 189.641 198.127 191.243C198.255 191.603 198.417 191.995 198.759 192.163C202.157 191.674 205.541 190.02 208.464 188.22C210.279 187.102 212.085 185.887 213.404 184.212C214.723 182.538 215.503 180.316 214.999 178.245C212.798 169.189 207.549 160.829 200.403 154.844" stroke="black" stroke-width="0.884061" stroke-linecap="round" stroke-linejoin="round"/>
<path d="M197.836 152.973C198.712 153.506 199.552 154.094 200.351 154.736" stroke="black" stroke-width="0.822176" stroke-linecap="round" stroke-linejoin="round"/>
<path d="M165.732 157.124C166.635 155.972 167.774 155.027 169.074 154.353" stroke="black" stroke-width="0.884061" stroke-linecap="round" stroke-linejoin="round"/>
<path d="M175.849 200.811C176.467 200.937 177.109 200.851 177.673 200.568C178.027 201.389 178.731 202.005 179.474 202.5C181.306 203.721 183.456 204.348 185.629 204.6C186.968 204.756 191.087 205.469 191.596 203.851C191.639 203.738 191.647 203.615 191.621 203.497C191.564 203.303 191.366 203.188 191.182 203.104C189.757 202.441 188.165 202.254 186.604 202.076" stroke="black" stroke-width="0.707248" stroke-linecap="round" stroke-linejoin="round"/>
<path d="M187.063 199.437C187.346 199.361 187.644 199.371 187.935 199.396C189.227 199.507 190.478 199.905 191.596 200.561C191.945 200.766 192.3 201.021 192.436 201.401C192.557 201.737 192.483 202.119 192.317 202.435C192.151 202.752 191.903 203.016 191.658 203.275" stroke="black" stroke-width="0.707248" stroke-linecap="round" stroke-linejoin="round"/>
<path d="M188.087 196.996C188.551 196.867 189.042 197.01 189.498 197.161C190.419 197.464 191.326 197.804 192.22 198.182C192.713 198.391 193.254 198.669 193.405 199.181C193.473 199.412 193.45 199.661 193.384 199.892C193.256 200.337 192.98 200.725 192.601 200.992" stroke="black" stroke-width="0.707248" stroke-linecap="round" stroke-linejoin="round"/>
<path d="M178.26 194.15C178.414 194.307 178.674 194.304 178.878 194.217C179.083 194.131 179.247 193.98 179.43 193.858C179.948 193.518 180.588 193.435 181.204 193.375C183.391 193.163 185.629 193.145 187.75 193.718C189.871 194.291 191.879 195.509 193.067 197.358C193.237 197.623 193.394 197.953 193.266 198.242" stroke="black" stroke-width="0.707248" stroke-linecap="round" stroke-linejoin="round"/>
<path d="M197.641 188.861C196.772 189.111 195.848 189.395 195.275 190.095C194.897 190.557 194.716 191.152 194.365 191.636C193.702 192.552 192.528 192.943 191.409 193.111C189.079 193.458 186.699 193.08 184.59 192.031C183.824 191.647 182.999 190.97 183.143 190.122C183.162 190.007 183.326 189.885 183.364 189.996C184.951 189.864 186.584 189.761 188.122 190.173" stroke="black" stroke-width="0.707248" stroke-linecap="round" stroke-linejoin="round"/>
<path d="M183.4 189.587C183.094 189.213 182.77 188.723 182.971 188.284C183.178 187.834 183.781 187.769 184.276 187.779C185.596 187.804 186.914 187.898 188.225 188.058" stroke="black" stroke-width="0.707248" stroke-linecap="round" stroke-linejoin="round"/>
<path d="M183.451 187.384C183.215 186.741 183.723 186.018 184.361 185.769C184.999 185.519 185.713 185.613 186.391 185.711L188.814 186.061" stroke="black" stroke-width="0.707248" stroke-linecap="round" stroke-linejoin="round"/>
<path d="M196.527 184.636C196.207 184.716 195.878 184.535 195.643 184.306C195.407 184.078 195.221 183.795 194.962 183.592C194.403 183.153 193.619 183.167 192.912 183.247C191.511 183.406 190.124 183.745 188.713 183.73C187.975 183.722 187.227 183.617 186.506 183.774C185.784 183.931 185.071 184.437 184.959 185.164" stroke="black" stroke-width="0.707248" stroke-linecap="round" stroke-linejoin="round"/>
<path d="M188.775 183.177C188.015 183.158 187.424 182.256 187.712 181.553C187.999 180.85 189.058 180.625 189.606 181.151" stroke="black" stroke-width="0.707248" stroke-linecap="round" stroke-linejoin="round"/>
<path d="M189.387 183.158C190.757 177.047 192.799 171.107 195.475 165.446C195.815 164.727 196.437 163.883 197.199 164.115C197.523 164.214 197.759 164.499 197.91 164.802C198.163 165.307 198.232 165.884 198.255 166.45C198.397 170.03 196.838 173.429 195.314 176.67L192.448 182.765" stroke="black" stroke-width="0.707248" stroke-linecap="round" stroke-linejoin="round"/>
<path d="M196.005 167.539C195.368 168.592 194.713 169.882 195.246 170.99C196.315 170.157 196.881 168.722 196.667 167.383C196.344 167.32 195.993 167.56 195.937 167.886" stroke="black" stroke-width="0.707248" stroke-linecap="round" stroke-linejoin="round"/>
<path d="M177.292 230.058C176.018 230.477 174.633 230.41 173.406 229.871C173.35 229.846 173.302 229.753 173.361 229.745L173.385 229.683C176.273 221.011 179.482 212.454 183.011 204.013C183.011 204.013 184.779 204.494 185.463 204.579L185.383 204.853C182.458 212.86 179.684 220.919 177.061 229.032C177.004 229.208 177.108 229.393 177.165 229.571C177.221 229.749 177.184 230.004 177.001 230.038C176.817 230.073 176.846 229.666 176.992 229.783" fill="white"/>
<path d="M177.292 230.058C176.018 230.477 174.633 230.41 173.406 229.871C173.35 229.846 173.302 229.753 173.361 229.745L173.385 229.683C176.273 221.011 179.482 212.454 183.011 204.013C183.011 204.013 184.779 204.494 185.463 204.579L185.383 204.853C182.458 212.86 179.684 220.919 177.061 229.032C177.004 229.208 177.108 229.393 177.165 229.571C177.221 229.749 177.184 230.004 177.001 230.038C176.817 230.073 176.846 229.666 176.992 229.783" stroke="black" stroke-width="0.707248" stroke-linecap="round" stroke-linejoin="round"/>
<path d="M163.861 198.074C163.154 199.204 162.587 200.439 162.354 201.751C162.195 202.649 162.195 203.569 162.354 204.468C162.781 204.729 162.884 204.808 163.334 205.032C166.058 206.395 169.26 206.297 172.297 206.065C175.334 205.832 178.474 205.507 181.359 206.484" stroke="black" stroke-width="0.884061" stroke-linecap="round" stroke-linejoin="round"/>
<path d="M184.957 206.959C187.209 206.927 189.49 206.886 191.66 206.287C193.819 205.692 195.787 204.567 197.878 203.768C199.968 202.969 202.331 202.504 204.432 203.277" stroke="black" stroke-width="0.886713" stroke-linecap="round" stroke-linejoin="round"/>
<path d="M165.78 205.967C165.826 209.574 166.081 213.175 166.543 216.753" stroke="black" stroke-width="0.886713" stroke-linecap="round" stroke-linejoin="round"/>
<path d="M184.785 217.193C185.17 214.937 185.724 212.713 186.442 210.54C186.476 210.436 186.609 210.316 186.665 210.409C187.804 212.314 187.842 214.843 187.4 217.018" stroke="black" stroke-width="0.886713" stroke-linecap="round" stroke-linejoin="round"/>
<path d="M208.122 208.103C208.296 211.501 207.477 214.877 205.765 217.818" stroke="black" stroke-width="0.886713" stroke-linecap="round" stroke-linejoin="round"/>
<path d="M289.421 246.069C289.469 243.084 274.517 240.423 256.025 240.126C237.532 239.829 222.503 242.008 222.455 244.994C222.407 247.979 237.359 250.64 255.851 250.937C274.343 251.234 289.373 249.054 289.421 246.069Z" stroke="black" stroke-width="1.10508" stroke-linecap="round" stroke-linejoin="round"/>
<path d="M289.193 245.534C289.193 245.534 294.792 261.396 285.193 262.101C275.593 262.807 255.057 262.694 255.057 262.694H256.383C256.383 262.694 235.847 262.807 226.247 262.101C216.647 261.396 222.247 245.534 222.247 245.534" stroke="black" stroke-width="1.11568" stroke-linecap="round" stroke-linejoin="round"/>
<path d="M226.762 247.42C226.823 246.248 227.846 245.342 228.915 244.856C229.26 244.698 229.648 244.567 230.014 244.668C230.38 244.769 230.672 245.198 230.5 245.536C230.783 244.952 231.185 244.433 231.68 244.012C232.174 243.591 232.751 243.277 233.373 243.091C233.643 243.011 233.938 242.958 234.203 243.055C234.467 243.152 234.674 243.451 234.581 243.718C234.767 243.314 235.032 242.951 235.361 242.652C235.689 242.353 236.075 242.123 236.495 241.976C237.007 241.8 237.757 241.892 237.842 242.427C238.069 241.726 238.446 241.083 238.948 240.544C239.45 240.004 240.065 239.582 240.748 239.306C241.559 238.985 242.548 238.908 243.252 239.422C244.193 237.919 246.052 237.046 247.81 237.285C248.002 237.311 248.203 237.348 248.388 237.289C248.535 237.241 248.656 237.137 248.776 237.038C249.733 236.251 250.853 235.686 252.054 235.382C252.929 235.161 254.034 235.172 254.522 235.93C255.125 234.94 256.065 234.118 257.189 233.836C258.313 233.554 259.615 233.885 260.338 234.791C260.461 233.965 261.451 233.465 262.26 233.674C263.069 233.884 263.656 234.619 263.92 235.412C264.116 234.715 265.048 234.415 265.698 234.733C266.348 235.051 266.691 235.814 266.69 236.538C267.483 236.096 268.586 235.826 269.484 235.951C270.71 236.122 271.636 237.465 271.357 238.671C272.146 238.016 273.415 238.169 274.164 238.869C274.914 239.569 275.176 240.681 275.025 241.698C275.812 241.118 276.959 241.081 277.781 241.61C278.603 242.138 279.044 243.199 278.842 244.155C279.509 243.718 280.366 243.495 281.116 243.764C281.867 244.034 282.416 244.896 282.165 245.653C282.712 245.053 283.806 245.285 284.261 245.958C284.717 246.631 284.645 247.546 284.332 248.295C283.539 248.831 282.563 248.704 281.621 248.856C263.985 251.689 245.996 251.507 228.421 248.317C227.754 248.195 227.124 247.99 226.762 247.42Z" fill="white" stroke="black" stroke-width="0.884061" stroke-linecap="round" stroke-linejoin="round"/>
<path d="M246.973 239.291C247.246 239.291 247.467 239.069 247.467 238.796C247.467 238.523 247.246 238.301 246.973 238.301C246.699 238.301 246.478 238.523 246.478 238.796C246.478 239.069 246.699 239.291 246.973 239.291Z" stroke="black" stroke-width="0.132609" stroke-miterlimit="10"/>
<path d="M261.346 237.38C261.619 237.38 261.84 237.158 261.84 236.885C261.84 236.612 261.619 236.391 261.346 236.391C261.073 236.391 260.851 236.612 260.851 236.885C260.851 237.158 261.073 237.38 261.346 237.38Z" stroke="black" stroke-width="0.132609" stroke-miterlimit="10"/>
<path d="M254.963 239.785C255.236 239.785 255.457 239.563 255.457 239.29C255.457 239.017 255.236 238.795 254.963 238.795C254.689 238.795 254.468 239.017 254.468 239.29C254.468 239.563 254.689 239.785 254.963 239.785Z" stroke="black" stroke-width="0.132609" stroke-miterlimit="10"/>
<path d="M267.712 243.114C267.985 243.114 268.207 242.893 268.207 242.62C268.207 242.346 267.985 242.125 267.712 242.125C267.439 242.125 267.217 242.346 267.217 242.62C267.217 242.893 267.439 243.114 267.712 243.114Z" stroke="black" stroke-width="0.132609" stroke-miterlimit="10"/>
<path d="M257.735 236.099L257.064 236.486L258.481 238.941L259.152 238.554L257.735 236.099Z" fill="white" stroke="black" stroke-width="0.221015" stroke-linecap="round" stroke-linejoin="round"/>
<path d="M262.016 242.238L261.345 242.625L262.763 245.08L263.433 244.693L262.016 242.238Z" fill="white" stroke="black" stroke-width="0.221015" stroke-linecap="round" stroke-linejoin="round"/>
<path d="M249.084 240.271L248.413 240.659L249.83 243.113L250.501 242.726L249.084 240.271Z" fill="white" stroke="black" stroke-width="0.221015" stroke-linecap="round" stroke-linejoin="round"/>
<path d="M214.194 285.729L305.272 289.356C305.272 289.356 327.037 275.006 325.116 273.006C323.195 271.006 239.339 271.433 239.339 271.433C239.339 271.433 211.881 284.451 214.194 285.729Z" stroke="black" stroke-width="1.54711" stroke-linecap="round" stroke-linejoin="round"/>
<path d="M214.194 285.729C214.194 285.729 216.998 294.984 231.605 307.82L298.551 308.595C298.551 308.595 322.232 297.308 325.773 273.738" stroke="black" stroke-width="0.884061" stroke-linecap="round" stroke-linejoin="round"/>
<path d="M305.272 289.358C305.272 289.358 309.064 290.67 298.553 308.596" stroke="black" stroke-width="0.884061" stroke-linecap="round" stroke-linejoin="round"/>
<path d="M299.4 286.931C299.4 286.931 306.071 286.18 311.882 275.741C311.882 275.741 292.728 280.925 286.81 280.377C280.892 279.829 274.651 275.739 274.651 275.739C274.651 275.739 244.63 269.713 232.255 278.214C232.255 278.214 224.932 285.135 243.659 286.392C262.386 287.648 287.992 282.948 287.992 282.948C287.992 282.948 296.71 283.38 299.4 286.931Z" stroke="black" stroke-width="0.707248" stroke-linecap="round" stroke-linejoin="round"/>
<path d="M240.891 279.147C241.622 278.857 242.004 278.088 241.743 277.429C241.481 276.769 240.677 276.47 239.945 276.759C239.214 277.049 238.832 277.818 239.093 278.478C239.354 279.137 240.159 279.437 240.891 279.147Z" stroke="black" stroke-width="0.530436" stroke-linecap="round" stroke-linejoin="round"/>
<path d="M231.394 279.334C231.394 279.334 232.433 280.925 235.654 280.3" stroke="black" stroke-width="0.530436" stroke-linecap="round" stroke-linejoin="round"/>
<path d="M242.374 286.332C242.374 286.332 249.462 284.022 249.41 277.392" stroke="black" stroke-width="0.795655" stroke-linecap="round" stroke-linejoin="round"/>
<path d="M250.863 281.359L259.111 275.617" stroke="black" stroke-width="0.530436" stroke-linecap="round" stroke-linejoin="round"/>
<path d="M257.023 282.142L265.009 275.617" stroke="black" stroke-width="0.530436" stroke-linecap="round" stroke-linejoin="round"/>
<path d="M263.391 282.142L270.699 276.295" stroke="black" stroke-width="0.530436" stroke-linecap="round" stroke-linejoin="round"/>
<path d="M270.699 282.351L275.972 277.706" stroke="black" stroke-width="0.530436" stroke-linecap="round" stroke-linejoin="round"/>
<path d="M216.237 288.878L239.654 290.049" stroke="black" stroke-width="0.265218" stroke-linecap="round" stroke-linejoin="round"/>
<path d="M218.161 292.537L250.264 292.977" stroke="black" stroke-width="0.265218" stroke-linecap="round" stroke-linejoin="round"/>
<path d="M240.412 295.098L282.901 295.757" stroke="black" stroke-width="0.265218" stroke-linecap="round" stroke-linejoin="round"/>
<path d="M222.823 297.807L255.72 298.099" stroke="black" stroke-width="0.265218" stroke-linecap="round" stroke-linejoin="round"/>
<path d="M238.483 299.562L275.51 300.514" stroke="black" stroke-width="0.265218" stroke-linecap="round" stroke-linejoin="round"/>
<path d="M226.408 302.197L252.679 302.563" stroke="black" stroke-width="0.265218" stroke-linecap="round" stroke-linejoin="round"/>
<path d="M231.394 304.172H247.995" stroke="black" stroke-width="0.265218" stroke-linecap="round" stroke-linejoin="round"/>
<path d="M234.97 306.514H243.605" stroke="black" stroke-width="0.265218" stroke-linecap="round" stroke-linejoin="round"/>
<path d="M246.385 305.417H269.983" stroke="black" stroke-width="0.265218" stroke-linecap="round" stroke-linejoin="round"/>
<path d="M264.167 302.563H287.584" stroke="black" stroke-width="0.265218" stroke-linecap="round" stroke-linejoin="round"/>
<path d="M272.51 304.172H300.61" stroke="black" stroke-width="0.265218" stroke-linecap="round" stroke-linejoin="round"/>
<path d="M279.974 306.514H299.293" stroke="black" stroke-width="0.265218" stroke-linecap="round" stroke-linejoin="round"/>
<path d="M268.705 298.099L303.756 298.675" stroke="black" stroke-width="0.265218" stroke-linecap="round" stroke-linejoin="round"/>
<path d="M281.877 296.855L301.268 297.148" stroke="black" stroke-width="0.265218" stroke-linecap="round" stroke-linejoin="round"/>
<path d="M257.362 293.534L274.193 293.855" stroke="black" stroke-width="0.265218" stroke-linecap="round" stroke-linejoin="round"/>
<path d="M261.016 291.732L303.756 293.196" stroke="black" stroke-width="0.265218" stroke-linecap="round" stroke-linejoin="round"/>
<path d="M324.744 276.922C324.744 276.922 320.134 286.266 310.27 289.995" stroke="black" stroke-width="0.265218" stroke-linecap="round" stroke-linejoin="round"/>
<path d="M305.938 293.61C305.938 293.61 312.94 292.841 318.131 288.227" stroke="black" stroke-width="0.265218" stroke-linecap="round" stroke-linejoin="round"/>
<path d="M313.939 296.301C313.939 296.301 310.517 298.858 306.403 298.387" stroke="black" stroke-width="0.265218" stroke-linecap="round" stroke-linejoin="round"/>
<path d="M309.172 299.838C309.172 299.838 307.703 300.8 305.938 300.454" stroke="black" stroke-width="0.265218" stroke-linecap="round" stroke-linejoin="round"/>
<path d="M301.268 304.319C301.268 304.319 303.664 304.384 304.637 303.994" stroke="black" stroke-width="0.265218" stroke-linecap="round" stroke-linejoin="round"/>
<path d="M85.0488 0.594727V123.517H170.009" stroke="black" stroke-width="0.663045" stroke-linecap="round" stroke-linejoin="round"/>
<path d="M88.6379 0.538574V119.98H173.599" stroke="black" stroke-width="0.653763" stroke-linecap="round" stroke-linejoin="round"/>
<path d="M258.404 119.981H328.281" stroke="black" stroke-width="0.653763" stroke-linecap="round" stroke-linejoin="round"/>
<path d="M263.2 123.517H328.281" stroke="black" stroke-width="0.630777" stroke-linecap="round" stroke-linejoin="round"/>
<path d="M143.688 108.218H119.635C119.635 108.218 114.758 122.96 131.798 122.96H131.314C148.354 122.96 143.477 108.218 143.477 108.218H119.424" fill="white"/>
<path d="M143.688 108.218H119.635C119.635 108.218 114.758 122.96 131.798 122.96H131.314C148.354 122.96 143.477 108.218 143.477 108.218H119.424" stroke="black" stroke-width="1.24255" stroke-linecap="round" stroke-linejoin="round"/>
<path d="M90.739 118.252H129.03C128.529 119.821 128.029 121.39 127.53 122.96H92.1403C91.6735 121.39 91.2064 119.821 90.739 118.252Z" fill="white" stroke="black" stroke-width="0.773553" stroke-linecap="round" stroke-linejoin="round"/>
<path d="M95.2078 111.076L106.001 116.939C107.14 117.558 108.415 117.885 109.711 117.892C111.007 117.898 112.284 117.584 113.43 116.977L124.561 111.076H95.2078Z" fill="white" stroke="black" stroke-width="0.8098" stroke-linecap="round" stroke-linejoin="round"/>
<path d="M109.884 111.076V58.6694" stroke="black" stroke-width="0.81422" stroke-linecap="round" stroke-linejoin="round"/>
<path d="M115.648 57.3866C121.916 55.2993 119.086 64.7866 114.031 63.19C107.168 61.2548 111.603 58.9116 115.648 57.3866Z" stroke="black" stroke-width="0.8098" stroke-linecap="round" stroke-linejoin="round"/>
<path d="M104.035 57.3866C97.7677 55.2993 100.597 64.7866 105.652 63.19C112.515 61.2548 108.081 58.9116 104.035 57.3866Z" stroke="black" stroke-width="0.8098" stroke-linecap="round" stroke-linejoin="round"/>
<path d="M115.648 70.8802C121.916 68.7929 119.086 78.2802 114.031 76.6836C107.168 74.7475 111.603 72.4048 115.648 70.8802Z" stroke="black" stroke-width="0.8098" stroke-linecap="round" stroke-linejoin="round"/>
<path d="M104.035 70.8802C97.7677 68.7929 100.597 78.2802 105.652 76.6836C112.515 74.7475 108.081 72.4048 104.035 70.8802Z" stroke="black" stroke-width="0.8098" stroke-linecap="round" stroke-linejoin="round"/>
<path d="M115.648 84.3739C121.916 82.2866 119.086 91.7739 114.031 90.1777C107.168 88.2425 111.603 85.8993 115.648 84.3739Z" stroke="black" stroke-width="0.8098" stroke-linecap="round" stroke-linejoin="round"/>
<path d="M104.035 84.3739C97.7677 82.2866 100.597 91.7739 105.652 90.1777C112.515 88.2425 108.081 85.8993 104.035 84.3739Z" stroke="black" stroke-width="0.8098" stroke-linecap="round" stroke-linejoin="round"/>
<path d="M115.648 97.8661C121.916 95.7788 119.086 105.266 114.031 103.67C107.168 101.736 111.603 99.3928 115.648 97.8661Z" stroke="black" stroke-width="0.8098" stroke-linecap="round" stroke-linejoin="round"/>
<path d="M104.035 97.8661C97.7677 95.7788 100.597 105.266 105.652 103.67C112.515 101.736 108.081 99.3928 104.035 97.8661Z" stroke="black" stroke-width="0.8098" stroke-linecap="round" stroke-linejoin="round"/>
<path d="M131.089 47.4668C131.541 47.4668 131.904 47.9579 131.897 48.5564L131.089 107.806L130.281 48.5564C130.275 47.9579 130.637 47.4668 131.089 47.4668Z" fill="black" stroke="black" stroke-width="0.414182" stroke-linecap="round" stroke-linejoin="round"/>
<path d="M135.485 55.4941C135.839 55.4941 136.127 55.9198 136.12 56.4388L135.485 107.806L134.849 56.4388C134.843 55.9198 135.129 55.4941 135.485 55.4941Z" fill="black" stroke="black" stroke-width="0.342131" stroke-linecap="round" stroke-linejoin="round"/>
<path d="M139.905 64.4238C140.151 64.4238 140.347 64.7775 140.344 65.2071L139.905 107.806L139.465 65.2071C139.461 64.7766 139.659 64.4238 139.905 64.4238Z" fill="black" stroke="black" stroke-width="0.25903" stroke-linecap="round" stroke-linejoin="round"/>
<path d="M123.009 66.0293C123.255 66.0293 123.451 66.367 123.449 66.7807L123.009 107.558L122.57 66.7807C122.565 66.367 122.764 66.0293 123.009 66.0293Z" fill="black" stroke="black" stroke-width="0.253725" stroke-linecap="round" stroke-linejoin="round"/>
<path d="M127.037 60.3105C127.391 60.3105 127.679 60.6969 127.673 61.1681L127.037 107.806L126.401 61.1681C126.395 60.6969 126.682 60.3105 127.037 60.3105Z" fill="black" stroke="black" stroke-width="0.326218" stroke-linecap="round" stroke-linejoin="round"/>
<path d="M289.981 0.354004V19.9501" stroke="black" stroke-width="0.707248" stroke-linecap="round" stroke-linejoin="round"/>
<path d="M289.977 74.5068V80.3947" stroke="black" stroke-width="0.707248" stroke-linecap="round" stroke-linejoin="round"/>
<path d="M291.07 82.4268L288.313 95.1342" stroke="black" stroke-width="0.464132" stroke-linecap="round" stroke-linejoin="round"/>
<path d="M289.475 82.4268L286.328 96.9302" stroke="black" stroke-width="0.495958" stroke-linecap="round" stroke-linejoin="round"/>
<path d="M289.984 67.4856C305.317 67.4856 317.747 58.3225 317.747 47.0192C317.747 35.7159 305.317 26.5527 289.984 26.5527C274.651 26.5527 262.222 35.7159 262.222 47.0192C262.222 58.3225 274.651 67.4856 289.984 67.4856Z" stroke="black" stroke-width="0.707248" stroke-linecap="round" stroke-linejoin="round"/>
<path d="M272.524 31.2202H307.459" stroke="black" stroke-width="0.707248" stroke-linecap="round" stroke-linejoin="round"/>
<path d="M266.824 35.8101H313.133" stroke="black" stroke-width="0.707248" stroke-linecap="round" stroke-linejoin="round"/>
<path d="M263.798 40.4004H316.216" stroke="black" stroke-width="0.707248" stroke-linecap="round" stroke-linejoin="round"/>
<path d="M262.625 44.9902H317.454" stroke="black" stroke-width="0.707248" stroke-linecap="round" stroke-linejoin="round"/>
<path d="M307.378 62.9067H272.442" stroke="black" stroke-width="0.707248" stroke-linecap="round" stroke-linejoin="round"/>
<path d="M313.342 57.9795H266.61" stroke="black" stroke-width="0.707248" stroke-linecap="round" stroke-linejoin="round"/>
<path d="M316.253 53.2661H263.59" stroke="black" stroke-width="0.707248" stroke-linecap="round" stroke-linejoin="round"/>
<path d="M317.277 49.5811H262.514" stroke="black" stroke-width="0.707248" stroke-linecap="round" stroke-linejoin="round"/>
<path d="M300.633 28.1026L297.664 19.9502H289.963H290.039H282.338L279.369 28.1026" stroke="black" stroke-width="0.707248" stroke-linecap="round" stroke-linejoin="round"/>
<path d="M300.633 65.9966L297.664 74.1485H289.963H290.039H282.338L279.369 65.9966" stroke="black" stroke-width="0.707248" stroke-linecap="round" stroke-linejoin="round"/>
<path d="M289.969 83.6851C291.004 83.6851 291.843 82.8464 291.843 81.8118C291.843 80.7772 291.004 79.9385 289.969 79.9385C288.935 79.9385 288.096 80.7772 288.096 81.8118C288.096 82.8464 288.935 83.6851 289.969 83.6851Z" fill="white" stroke="black" stroke-width="0.618842" stroke-linecap="round" stroke-linejoin="round"/>
</svg>
