<svg width="152" height="152" viewBox="0 0 152 152" fill="none" xmlns="http://www.w3.org/2000/svg">
<path d="M116.229 82.8256C116.857 82.8256 117.459 82.5763 117.903 82.1325C118.347 81.6887 118.596 81.0868 118.596 80.4592V75.7263C118.596 75.0987 118.347 74.4968 117.903 74.053C117.459 73.6092 116.857 73.3599 116.229 73.3599C115.602 73.3599 115 73.6092 114.556 74.053C114.112 74.4968 113.863 75.0987 113.863 75.7263V80.4592C113.863 81.0868 114.112 81.6887 114.556 82.1325C115 82.5763 115.602 82.8256 116.229 82.8256Z" fill="#BDBDBD"/>
<path d="M116.229 97.0243C115.602 97.0243 115 97.2736 114.556 97.7174C114.112 98.1612 113.863 98.7631 113.863 99.3907V104.124C113.863 104.751 114.112 105.353 114.556 105.797C115 106.241 115.602 106.49 116.229 106.49C116.857 106.49 117.459 106.241 117.903 105.797C118.347 105.353 118.596 104.751 118.596 104.124V99.3907C118.596 98.7631 118.347 98.1612 117.903 97.7174C117.459 97.2736 116.857 97.0243 116.229 97.0243Z" fill="#BDBDBD"/>
<path d="M108.438 138.927C109.392 139.384 110.438 139.621 111.497 139.62H139.894C141.776 139.618 143.581 138.87 144.912 137.539C146.243 136.208 146.991 134.403 146.993 132.521V70.9934C146.991 69.1112 146.243 67.3066 144.912 65.9757C143.581 64.6448 141.776 63.8962 139.894 63.894H111.497C109.614 63.8962 107.81 64.6448 106.479 65.9757C105.148 67.3066 104.399 69.1112 104.397 70.9934V82.8256H99.6644V78.0927C99.6644 77.4651 99.4151 76.8632 98.9713 76.4194C98.5275 75.9756 97.9256 75.7263 97.298 75.7263H83.0993C82.4717 75.7263 81.8697 75.9756 81.4259 76.4194C80.9822 76.8632 80.7328 77.4651 80.7328 78.0927V82.8256H75.9999V78.0927C76.0003 77.7814 75.9391 77.4732 75.8198 77.1857C75.7005 76.8982 75.5255 76.6371 75.3048 76.4176C75.7627 75.4633 76.0003 74.4183 75.9999 73.3598H80.7328C81.3605 73.3598 81.9624 73.1105 82.4062 72.6667C82.85 72.2229 83.0993 71.621 83.0993 70.9934C83.0993 70.3658 82.85 69.7638 82.4062 69.32C81.9624 68.8763 81.3605 68.6269 80.7328 68.6269H75.9999C75.9999 67.9993 75.7506 67.3974 75.3068 66.9536C74.863 66.5098 74.2611 66.2605 73.6335 66.2605H59.4348C58.8072 66.2605 58.2053 66.5098 57.7615 66.9536C57.3177 67.3974 57.0684 67.9993 57.0684 68.6269V73.3548C57.0672 74.415 57.3048 75.4618 57.7635 76.4176C57.5429 76.6371 57.3678 76.8982 57.2485 77.1857C57.1292 77.4732 57.068 77.7814 57.0684 78.0927V82.8256H45.2362V78.0927H47.6026C48.2302 78.0927 48.8321 77.8434 49.2759 77.3996C49.7197 76.9558 49.969 76.3539 49.969 75.7263C49.969 75.0986 49.7197 74.4967 49.2759 74.0529C48.8321 73.6091 48.2302 73.3598 47.6026 73.3598H45.2362V70.9934C45.2362 69.1105 44.4882 67.3048 43.1568 65.9734C41.8254 64.642 40.0197 63.894 38.1368 63.894C36.254 63.894 34.4482 64.642 33.1168 65.9734C31.7854 67.3048 31.0375 69.1105 31.0375 70.9934V75.7263C31.0375 76.3539 31.2868 76.9558 31.7306 77.3996C32.1744 77.8434 32.7763 78.0927 33.4039 78.0927C34.0316 78.0927 34.6335 77.8434 35.0773 77.3996C35.5211 76.9558 35.7704 76.3539 35.7704 75.7263V70.9934C35.7704 70.3658 36.0197 69.7638 36.4635 69.32C36.9073 68.8763 37.5092 68.6269 38.1368 68.6269C38.7644 68.6269 39.3664 68.8763 39.8102 69.32C40.2539 69.7638 40.5033 70.3658 40.5033 70.9934V82.8256H21.5717V78.0927C21.5717 76.2099 20.8237 74.4041 19.4924 73.0727C18.161 71.7413 16.3552 70.9934 14.4724 70.9934C12.5895 70.9934 10.7838 71.7413 9.45238 73.0727C8.121 74.4041 7.37304 76.2099 7.37304 78.0927V82.8256C6.74542 82.8256 6.1435 83.0749 5.69971 83.5187C5.25591 83.9625 5.00659 84.5644 5.00659 85.1921V137.254C5.00659 137.881 5.25591 138.483 5.69971 138.927C6.1435 139.371 6.74542 139.62 7.37304 139.62H106.764C107.075 139.621 107.383 139.56 107.67 139.441C107.957 139.322 108.218 139.147 108.438 138.927ZM139.894 134.887H111.497C110.869 134.887 110.268 134.637 109.824 134.194C109.38 133.75 109.131 133.148 109.13 132.521V92.2914H142.26V132.521C142.26 133.148 142.01 133.75 141.567 134.194C141.123 134.637 140.521 134.887 139.894 134.887ZM109.13 70.9934C109.131 70.366 109.38 69.7645 109.824 69.3208C110.268 68.8772 110.869 68.6276 111.497 68.6269H139.894C140.521 68.6276 141.123 68.8772 141.567 69.3208C142.01 69.7645 142.26 70.366 142.26 70.9934V87.5585H109.13V70.9934ZM94.9315 87.5585V97.0243H61.8013V87.5585H94.9315ZM61.8013 101.757H94.9315V125.422H61.8013V101.757ZM85.4657 80.4592H94.9315V82.8256H85.4657V80.4592ZM61.8013 82.8256V80.4592H71.2671V82.8256H61.8013ZM61.8013 70.9934H71.2671V73.3548C71.2663 73.9835 71.0163 74.5863 70.5717 75.0309C70.1271 75.4755 69.5243 75.7256 68.8956 75.7263H64.1727C63.544 75.7256 62.9412 75.4755 62.4966 75.0309C62.0521 74.5863 61.802 73.9835 61.8013 73.3548V70.9934ZM12.1059 78.0927C12.1059 77.4651 12.3552 76.8632 12.799 76.4194C13.2428 75.9756 13.8448 75.7263 14.4724 75.7263C15.1 75.7263 15.7019 75.9756 16.1457 76.4194C16.5895 76.8632 16.8388 77.4651 16.8388 78.0927V82.8256H12.1059V78.0927ZM104.397 134.887H9.73948V87.5585H57.0684V127.788C57.0684 128.416 57.3177 129.018 57.7615 129.461C58.2053 129.905 58.8072 130.155 59.4348 130.155H97.298C97.9256 130.155 98.5275 129.905 98.9713 129.461C99.4151 129.018 99.6644 128.416 99.6644 127.788V87.5585H104.397V134.887Z" fill="#BDBDBD"/>
<path d="M83.0993 106.49H73.6335C73.0059 106.49 72.404 106.739 71.9602 107.183C71.5164 107.627 71.2671 108.229 71.2671 108.856C71.2671 109.484 71.5164 110.086 71.9602 110.53C72.404 110.974 73.0059 111.223 73.6335 111.223H83.0993C83.7269 111.223 84.3289 110.974 84.7726 110.53C85.2164 110.086 85.4658 109.484 85.4658 108.856C85.4658 108.229 85.2164 107.627 84.7726 107.183C84.3289 106.739 83.7269 106.49 83.0993 106.49Z" fill="#BDBDBD"/>
<path d="M49.9691 111.223H16.8389C16.2112 111.223 15.6093 111.472 15.1655 111.916C14.7217 112.36 14.4724 112.962 14.4724 113.589V127.788C14.4724 128.416 14.7217 129.018 15.1655 129.461C15.6093 129.905 16.2112 130.154 16.8389 130.154H49.9691C50.5967 130.154 51.1986 129.905 51.6424 129.461C52.0862 129.018 52.3355 128.416 52.3355 127.788V113.589C52.3355 112.962 52.0862 112.36 51.6424 111.916C51.1986 111.472 50.5967 111.223 49.9691 111.223ZM47.6026 125.422H19.2053V115.956H47.6026V125.422Z" fill="#BDBDBD"/>
<path d="M49.9691 92.2914H16.8389C16.2112 92.2914 15.6093 92.5407 15.1655 92.9845C14.7217 93.4283 14.4724 94.0302 14.4724 94.6578V104.124C14.4724 104.751 14.7217 105.353 15.1655 105.797C15.6093 106.241 16.2112 106.49 16.8389 106.49H49.9691C50.5967 106.49 51.1986 106.241 51.6424 105.797C52.0862 105.353 52.3355 104.751 52.3355 104.124V94.6578C52.3355 94.0302 52.0862 93.4283 51.6424 92.9845C51.1986 92.5407 50.5967 92.2914 49.9691 92.2914ZM47.6026 101.757H19.2053V97.0243H47.6026V101.757Z" fill="#BDBDBD"/>
<path d="M94.9314 30.7638C95.559 30.7638 96.1609 30.5144 96.6047 30.0706C97.0485 29.6268 97.2978 29.0249 97.2978 28.3973V23.6644C97.2978 23.0368 97.0485 22.4349 96.6047 21.9911C96.1609 21.5473 95.559 21.298 94.9314 21.298C94.3038 21.298 93.7018 21.5473 93.2581 21.9911C92.8143 22.4349 92.5649 23.0368 92.5649 23.6644V28.3973C92.5649 29.0249 92.8143 29.6268 93.2581 30.0706C93.7018 30.5144 94.3038 30.7638 94.9314 30.7638Z" fill="#BDBDBD"/>
<path d="M123.329 30.7638C123.956 30.7638 124.558 30.5144 125.002 30.0706C125.446 29.6268 125.695 29.0249 125.695 28.3973V23.6644C125.695 23.0368 125.446 22.4349 125.002 21.9911C124.558 21.5473 123.956 21.298 123.329 21.298C122.701 21.298 122.099 21.5473 121.656 21.9911C121.212 22.4349 120.962 23.0368 120.962 23.6644V28.3973C120.962 29.0249 121.212 29.6268 121.656 30.0706C122.099 30.5144 122.701 30.7638 123.329 30.7638Z" fill="#BDBDBD"/>
<path d="M7.37304 26.0309H28.671V35.4967H26.3046C25.8652 35.4967 25.4344 35.6191 25.0606 35.8502C24.6868 36.0812 24.3847 36.4117 24.1881 36.8048L17.0888 51.0035C16.9084 51.3642 16.8232 51.7651 16.8413 52.1681C16.8594 52.5711 16.9802 52.9627 17.1923 53.3059C17.4043 53.649 17.7006 53.9323 18.0529 54.1287C18.4052 54.3251 18.8019 54.4283 19.2053 54.4283H42.8697C43.2731 54.4283 43.6698 54.3251 44.0221 54.1287C44.3744 53.9323 44.6706 53.649 44.8827 53.3059C45.0947 52.9627 45.2156 52.5711 45.2337 52.1681C45.2518 51.7651 45.1666 51.3642 44.9862 51.0035L37.8869 36.8048C37.6903 36.4117 37.3882 36.0812 37.0144 35.8502C36.6406 35.6191 36.2098 35.4967 35.7704 35.4967H33.4039V26.0309H64.1677V35.4967H61.8013C61.3618 35.4967 60.9311 35.6191 60.5572 35.8502C60.1834 36.0812 59.8813 36.4117 59.6848 36.8048L52.5854 51.0035C52.405 51.3642 52.3198 51.7651 52.338 52.1681C52.3561 52.5711 52.4769 52.9627 52.689 53.3059C52.901 53.649 53.1973 53.9323 53.5496 54.1287C53.9019 54.3251 54.2986 54.4283 54.7019 54.4283H78.3664C78.7698 54.4283 79.1664 54.3251 79.5188 54.1287C79.8711 53.9323 80.1673 53.649 80.3794 53.3059C80.5914 52.9627 80.7123 52.5711 80.7304 52.1681C80.7485 51.7651 80.6633 51.3642 80.4829 51.0035L73.3835 36.8048C73.187 36.4117 72.8849 36.0812 72.5111 35.8502C72.1373 35.6191 71.7065 35.4967 71.2671 35.4967H68.9006V26.0309H85.4657V44.9625C85.4657 45.5901 85.715 46.192 86.1588 46.6358C86.6026 47.0796 87.2046 47.329 87.8322 47.329H144.627C145.254 47.329 145.856 47.0796 146.3 46.6358C146.744 46.192 146.993 45.5901 146.993 44.9625V14.1987C146.993 13.5711 146.744 12.9692 146.3 12.5254C145.856 12.0816 145.254 11.8323 144.627 11.8323H7.37304C6.74542 11.8323 6.1435 12.0816 5.69971 12.5254C5.25591 12.9692 5.00659 13.5711 5.00659 14.1987V23.6645C5.00659 24.2921 5.25591 24.894 5.69971 25.3378C6.1435 25.7816 6.74542 26.0309 7.37304 26.0309ZM39.0408 49.6954H23.0342L27.7671 40.2296H34.3079L39.0408 49.6954ZM74.5375 49.6954H58.5308L63.2637 40.2296H69.8046L74.5375 49.6954ZM90.1986 16.5652H111.497V35.4967H90.1986V16.5652ZM142.26 42.5961H90.1986V40.2296H142.26V42.5961ZM142.26 35.4967H116.23V16.5652H142.26V35.4967ZM9.73948 16.5652H85.4657V21.2981H9.73948V16.5652Z" fill="#BDBDBD"/>
<path d="M68.9006 94.6578C70.2076 94.6578 71.2671 93.5983 71.2671 92.2914C71.2671 90.9844 70.2076 89.9249 68.9006 89.9249C67.5937 89.9249 66.5342 90.9844 66.5342 92.2914C66.5342 93.5983 67.5937 94.6578 68.9006 94.6578Z" fill="#BDBDBD"/>
<path d="M78.3664 94.6578C79.6734 94.6578 80.7329 93.5983 80.7329 92.2914C80.7329 90.9844 79.6734 89.9249 78.3664 89.9249C77.0595 89.9249 76 90.9844 76 92.2914C76 93.5983 77.0595 94.6578 78.3664 94.6578Z" fill="#BDBDBD"/>
<path d="M87.8323 94.6578C89.1392 94.6578 90.1987 93.5983 90.1987 92.2914C90.1987 90.9844 89.1392 89.9249 87.8323 89.9249C86.5253 89.9249 85.4658 90.9844 85.4658 92.2914C85.4658 93.5983 86.5253 94.6578 87.8323 94.6578Z" fill="#BDBDBD"/>
</svg>